<svg width="60" height="61" viewBox="0 0 60 61" fill="none" xmlns="http://www.w3.org/2000/svg">
<path d="M19.4619 10.0194L15 10.5194C11.8 10.9194 11 13.686 11 15.0194V56.0194C11 57.686 12.3 60.8194 17.5 60.0194L44 57.5194C45.3333 57.186 48 55.5194 48 51.5194V13.0194C47.8333 11.5194 46.6 8.41935 43 8.01935L37.8836 8.53525M19.5 11.5194C19.1667 8.18602 20.4 1.41935 28 1.01935C35.6 0.619353 37.8333 6.51935 38 9.51935M22.5 11.5194C22.1667 9.18602 22.7 4.11936 27.5 2.51936M14.5 52.0194V18.5194C14.3079 16.8527 15.0314 13.4194 19.4619 13.0194L41.5 11.0194M19 53.0194V19.0194C19 18.186 19.5 16.5194 21.5 16.5194L42.5 14.5194C43.3333 14.5194 45 15.0194 45 17.0194V49.5194C45 50.5194 44.5 52.6194 42.5 53.0194L21.5 55.5194C20.6667 55.5194 19 55.0194 19 53.0194Z" stroke="#2C2C2C" stroke-linecap="round" stroke-linejoin="round"/>
<rect x="28.9226" y="40.4782" width="15" height="2.25332" rx="1.12666" transform="rotate(-5.06686 28.9226 40.4782)" stroke="#2C2C2C"/>
<rect x="32.98" y="35.219" width="10.75" height="2.00142" rx="1.00071" transform="rotate(-5.06686 32.98 35.219)" stroke="#2C2C2C"/>
<rect x="32.9578" y="21.9265" width="10.75" height="2.00142" rx="1.00071" transform="rotate(-5.06686 32.9578 21.9265)" stroke="#2C2C2C"/>
<mask id="path-5-outside-1_590_12242" maskUnits="userSpaceOnUse" x="21.5" y="18.5195" width="11" height="11" fill="black">
<rect fill="white" x="21.5" y="18.5195" width="11" height="11"/>
<path fill-rule="evenodd" clip-rule="evenodd" d="M30.5919 21.2835C30.7372 21.0482 30.6643 20.7396 30.429 20.5943C30.1938 20.449 29.8852 20.5219 29.7399 20.7572L25.8303 27.0864L23.3493 24.6798C23.1508 24.4873 22.8338 24.4921 22.6413 24.6906C22.4488 24.8891 22.4536 25.2061 22.6521 25.3986L25.4459 28.1086C25.5379 28.1979 25.6554 28.2447 25.7741 28.2495C26.0004 28.353 26.2737 28.2742 26.4078 28.057L30.5919 21.2835Z"/>
</mask>
<path d="M30.429 20.5943L30.9546 19.7435L30.429 20.5943ZM30.5919 21.2835L29.7411 20.7579L29.7411 20.7579L30.5919 21.2835ZM29.7399 20.7572L28.8891 20.2316V20.2316L29.7399 20.7572ZM25.8303 27.0864L25.1341 27.8041L26.0272 28.6705L26.6811 27.6119L25.8303 27.0864ZM23.3493 24.6798L24.0456 23.962H24.0456L23.3493 24.6798ZM22.6413 24.6906L23.3591 25.3868L23.3591 25.3868L22.6413 24.6906ZM22.6521 25.3986L23.3483 24.6808L23.3483 24.6808L22.6521 25.3986ZM25.4459 28.1086L24.7497 28.8264L24.7497 28.8264L25.4459 28.1086ZM25.7741 28.2495L26.1901 27.3401L26.0111 27.2583L25.8146 27.2503L25.7741 28.2495ZM26.4078 28.057L27.2586 28.5825L26.4078 28.057ZM29.9035 21.4451C29.6689 21.3002 29.5962 20.9925 29.7411 20.7579L31.4427 21.809C31.8782 21.1038 31.6597 20.1791 30.9546 19.7435L29.9035 21.4451ZM30.5907 21.2827C30.4458 21.5173 30.1381 21.59 29.9035 21.4451L30.9546 19.7435C30.2494 19.308 29.3247 19.5265 28.8891 20.2316L30.5907 21.2827ZM26.6811 27.6119L30.5907 21.2827L28.8891 20.2316L24.9796 26.5608L26.6811 27.6119ZM22.6531 25.3976L25.1341 27.8041L26.5266 26.3686L24.0456 23.962L22.6531 25.3976ZM23.3591 25.3868C23.1671 25.5848 22.851 25.5896 22.6531 25.3976L24.0456 23.962C23.4507 23.3849 22.5006 23.3994 21.9235 23.9943L23.3591 25.3868ZM23.3483 24.6808C23.5463 24.8728 23.5511 25.1889 23.3591 25.3868L21.9235 23.9943C21.3464 24.5893 21.3609 25.5393 21.9558 26.1164L23.3483 24.6808ZM26.1422 27.3908L23.3483 24.6808L21.9558 26.1164L24.7497 28.8264L26.1422 27.3908ZM25.8146 27.2503C25.9321 27.2551 26.0509 27.3023 26.1422 27.3908L24.7497 28.8264C25.025 29.0935 25.3787 29.2343 25.7337 29.2487L25.8146 27.2503ZM25.557 27.5315C25.6912 27.3143 25.9635 27.2365 26.1901 27.3401L25.3582 29.1589C26.0374 29.4696 26.8561 29.2341 27.2586 28.5825L25.557 27.5315ZM29.7411 20.7579L25.557 27.5315L27.2586 28.5825L31.4427 21.809L29.7411 20.7579Z" fill="#2C2C2C" mask="url(#path-5-outside-1_590_12242)"/>
<mask id="path-7-outside-2_590_12242" maskUnits="userSpaceOnUse" x="21.5" y="32.5195" width="11" height="11" fill="black">
<rect fill="white" x="21.5" y="32.5195" width="11" height="11"/>
<path fill-rule="evenodd" clip-rule="evenodd" d="M30.5919 35.2835C30.7372 35.0482 30.6643 34.7396 30.429 34.5943C30.1938 34.449 29.8852 34.5219 29.7399 34.7572L25.8303 41.0864L23.3493 38.6798C23.1508 38.4873 22.8338 38.4921 22.6413 38.6906C22.4488 38.8891 22.4536 39.2061 22.6521 39.3986L25.4459 42.1086C25.5379 42.1979 25.6554 42.2447 25.7741 42.2495C26.0004 42.353 26.2737 42.2742 26.4078 42.057L30.5919 35.2835Z"/>
</mask>
<path d="M30.429 34.5943L30.9546 33.7435L30.429 34.5943ZM30.5919 35.2835L29.7411 34.7579L29.7411 34.7579L30.5919 35.2835ZM29.7399 34.7572L28.8891 34.2316V34.2316L29.7399 34.7572ZM25.8303 41.0864L25.1341 41.8041L26.0272 42.6705L26.6811 41.6119L25.8303 41.0864ZM23.3493 38.6798L24.0456 37.962H24.0456L23.3493 38.6798ZM22.6413 38.6906L23.3591 39.3868L23.3591 39.3868L22.6413 38.6906ZM22.6521 39.3986L23.3483 38.6808L23.3483 38.6808L22.6521 39.3986ZM25.4459 42.1086L24.7497 42.8264L24.7497 42.8264L25.4459 42.1086ZM25.7741 42.2495L26.1901 41.3401L26.0111 41.2583L25.8146 41.2503L25.7741 42.2495ZM26.4078 42.057L27.2586 42.5825L26.4078 42.057ZM29.9035 35.4451C29.6689 35.3002 29.5962 34.9925 29.7411 34.7579L31.4427 35.809C31.8782 35.1038 31.6597 34.1791 30.9546 33.7435L29.9035 35.4451ZM30.5907 35.2827C30.4458 35.5173 30.1381 35.59 29.9035 35.4451L30.9546 33.7435C30.2494 33.308 29.3247 33.5265 28.8891 34.2316L30.5907 35.2827ZM26.6811 41.6119L30.5907 35.2827L28.8891 34.2316L24.9796 40.5608L26.6811 41.6119ZM22.6531 39.3976L25.1341 41.8041L26.5266 40.3686L24.0456 37.962L22.6531 39.3976ZM23.3591 39.3868C23.1671 39.5848 22.851 39.5896 22.6531 39.3976L24.0456 37.962C23.4507 37.3849 22.5006 37.3994 21.9235 37.9943L23.3591 39.3868ZM23.3483 38.6808C23.5463 38.8728 23.5511 39.1889 23.3591 39.3868L21.9235 37.9943C21.3464 38.5893 21.3609 39.5393 21.9558 40.1164L23.3483 38.6808ZM26.1422 41.3908L23.3483 38.6808L21.9558 40.1164L24.7497 42.8264L26.1422 41.3908ZM25.8146 41.2503C25.9321 41.2551 26.0509 41.3023 26.1422 41.3908L24.7497 42.8264C25.025 43.0935 25.3787 43.2343 25.7337 43.2487L25.8146 41.2503ZM25.557 41.5315C25.6912 41.3143 25.9635 41.2365 26.1901 41.3401L25.3582 43.1589C26.0374 43.4696 26.8561 43.2341 27.2586 42.5825L25.557 41.5315ZM29.7411 34.7579L25.557 41.5315L27.2586 42.5825L31.4427 35.809L29.7411 34.7579Z" fill="#2C2C2C" mask="url(#path-7-outside-2_590_12242)"/>
<rect x="29.0602" y="26.9177" width="14.6078" height="1.82897" rx="0.914485" transform="rotate(-5.06686 29.0602 26.9177)" stroke="#2C2C2C"/>
</svg>
