<svg width="22" height="21" viewBox="0 0 22 21" fill="none" xmlns="http://www.w3.org/2000/svg">
<path d="M1.896 10.4841V10.4841C1.896 14.646 5.26988 18.0199 9.43177 18.0199H12.8882C17.0501 18.0199 20.424 14.646 20.424 10.4841V10.4841M1.896 10.4841H20.424M1.896 10.4841H1.69952C1.31319 10.4841 1 10.1709 1 9.78458V9.78458C1 9.39824 1.31319 9.08506 1.69952 9.08506H1.896M20.424 10.4841V10.4841C20.7421 10.4841 21 10.2262 21 9.9081V9.78458C21 9.39824 20.6868 9.08506 20.3005 9.08506H19.752M1.896 9.08506V2.42C1.896 1.35961 2.75561 0.5 3.816 0.5H4.40055C5.1381 0.5 5.736 1.0979 5.736 1.83545V2.45091C5.736 2.84855 5.41365 3.17091 5.016 3.17091H4.93193C4.58072 3.17091 4.296 2.88619 4.296 2.53498V2.42705C4.296 2.13544 4.05961 1.89905 3.768 1.89905V1.89905C3.47639 1.89905 3.24 2.13544 3.24 2.42705V8.35374M1.896 9.08506H3.24M3.24 9.08506V8.35374M3.24 9.08506H19.752M3.24 8.35374C3.67733 7.48463 4.9616 6.19157 6.6 7.97218C6.984 7.27266 7.144 6.70032 8.104 6.70032C8.872 6.70032 9.256 7.54823 9.352 7.97218C9.37333 7.7708 9.6144 7.36804 10.408 7.36804C11.2016 7.36804 11.5493 7.7708 11.624 7.97218C11.5493 7.30445 11.752 5.969 13.16 5.969C14.568 5.969 14.8347 6.9017 14.792 7.36804C14.9413 7.01828 15.432 6.39507 16.2 6.70032C16.968 7.00556 17.224 7.67541 17.256 7.97218C17.4693 7.64361 18.2182 7.11455 18.856 7.36804C19.496 7.62242 19.72 8.13116 19.752 9.08506M5 17.1932L4.12508 19.1009C3.96938 19.4404 4.10474 19.8425 4.43406 20.0187V20.0187C4.79299 20.2107 5.23954 20.0606 5.40957 19.6907L6.28 17.7973M16.072 17.7655L17.0459 19.8995C17.1953 20.2267 17.5875 20.3633 17.9078 20.1996V20.1996C18.2064 20.0471 18.3337 19.6878 18.1978 19.3813L17.256 17.2568M18.344 3.93891V4.08812C18.344 4.51228 18.0002 4.85612 17.576 4.85612V4.85612C17.1518 4.85612 16.808 4.51228 16.808 4.08812V3.93891C16.808 3.51475 17.1518 3.17091 17.576 3.17091V3.17091C18.0002 3.17091 18.344 3.51475 18.344 3.93891ZM9.032 4.60643V4.72425C9.032 5.13074 8.70248 5.46025 8.296 5.46025V5.46025C7.88952 5.46025 7.56 5.13074 7.56 4.72425V4.60643C7.56 4.19995 7.88952 3.87043 8.296 3.87043V3.87043C8.70248 3.87043 9.032 4.19995 9.032 4.60643ZM14.152 4.1248V4.1248C13.6041 4.1248 13.16 3.68067 13.16 3.1328V2.89105C13.16 2.34318 13.6041 1.89905 14.152 1.89905V1.89905C14.6999 1.89905 15.144 2.34318 15.144 2.89105V3.1328C15.144 3.68067 14.6999 4.1248 14.152 4.1248Z" stroke="#F5F5F5" stroke-linecap="round"/>
</svg>
