<svg width="21" height="21" viewBox="0 0 21 21" fill="none" xmlns="http://www.w3.org/2000/svg">
<path d="M0 16.9561H20M0 16.9561V14.8509C0 14.1145 0.596954 13.5175 1.33333 13.5175V13.5175M0 16.9561V16.9845C0 18.054 0.867004 18.9211 1.93651 18.9211V18.9211M20 16.9561V14.8191C20 14.1003 19.4173 13.5175 18.6984 13.5175V13.5175M20 16.9561V17.6195C20 18.3383 19.4173 18.9211 18.6984 18.9211V18.9211M18.6984 13.5175V12.8926C18.6984 11.8231 17.8314 10.9561 16.7619 10.9561V10.9561M18.6984 13.5175H1.33333M1.33333 13.5175V12.8609C1.33333 11.8089 2.18612 10.9561 3.2381 10.9561V10.9561M3.2381 10.9561V7.00877C3.2381 5.35192 4.58124 4.00877 6.2381 4.00877H7.46032V3.97368C7.46032 2.86911 8.35575 1.97368 9.46032 1.97368H10.6667C11.7712 1.97368 12.6667 2.86911 12.6667 3.97368V4.00877H13.7619C15.4188 4.00877 16.7619 5.35192 16.7619 7.00877V10.9561M3.2381 10.9561H16.7619M1.93651 18.9211V18.9211C1.93651 19.7931 2.64343 20.5 3.51546 20.5H4.26232C5.13435 20.5 5.84127 19.7931 5.84127 18.9211V18.9211M1.93651 18.9211H5.84127M5.84127 18.9211H14.6667M14.6667 18.9211V18.9211C14.6667 19.7931 15.3736 20.5 16.2456 20.5H17.1195C17.9915 20.5 18.6984 19.7931 18.6984 18.9211V18.9211M14.6667 18.9211H18.6984M6.60318 10.7456H6.66667C7.42935 10.7456 8.04762 10.0623 8.04762 9.2193C8.04762 8.37634 7.42935 7.69298 6.66667 7.69298H6.60318C5.8405 7.69298 5.22222 8.37634 5.22222 9.2193C5.22222 10.0623 5.8405 10.7456 6.60318 10.7456ZM13.2222 10.7456H13.2857C14.0484 10.7456 14.6667 10.0623 14.6667 9.2193C14.6667 8.37634 14.0484 7.69298 13.2857 7.69298H13.2222C12.4595 7.69298 11.8413 8.37634 11.8413 9.2193C11.8413 10.0623 12.4595 10.7456 13.2222 10.7456ZM18.8889 1.95614V1.95614C18.8889 2.46967 18.4659 2.88596 17.9524 2.88596V2.88596C17.4389 2.88596 17.0159 2.46967 17.0159 1.95614V1.95614C17.0159 1.44261 17.4389 1.02632 17.9524 1.02632V1.02632C18.4659 1.02632 18.8889 1.44261 18.8889 1.95614ZM3.49206 1.9127V2.13993C3.49206 2.92014 2.85958 3.55263 2.07937 3.55263V3.55263C1.29915 3.55263 0.666667 2.92014 0.666667 2.13993V1.9127C0.666667 1.13249 1.29915 0.5 2.07937 0.5V0.5C2.85958 0.5 3.49206 1.13249 3.49206 1.9127Z" stroke="#F5F5F5" stroke-linecap="round"/>
</svg>
