<svg width="26" height="26" viewBox="0 0 26 26" fill="none" xmlns="http://www.w3.org/2000/svg">
<path d="M20.37 5H5.5C4.83696 5 4.20107 5.26339 3.73223 5.73223C3.26339 6.20107 3 6.83696 3 7.5V18.37C3 19.033 3.26339 19.6689 3.73223 20.1378C4.20107 20.6066 4.83696 20.87 5.5 20.87H20.37C21.033 20.87 21.6689 20.6066 22.1378 20.1378C22.6066 19.6689 22.87 19.033 22.87 18.37V7.5C22.87 6.83696 22.6066 6.20107 22.1378 5.73223C21.6689 5.26339 21.033 5 20.37 5ZM5.5 6H20.37C20.7484 5.99915 21.113 6.14233 21.3898 6.40048C21.6665 6.65863 21.8346 7.01241 21.86 7.39C19.39 8.71 16.91 10.02 14.43 11.34C14.095 11.5512 13.74 11.7287 13.37 11.87C13.0799 11.9274 12.7809 11.9224 12.4929 11.8551C12.205 11.7879 11.9346 11.66 11.7 11.48C10.28 10.73 8.86 9.97 7.45 9.22C6.31 8.62 5.15 8.01 4.01 7.4C4.03296 7.02063 4.20002 6.66437 4.477 6.40412C4.75398 6.14387 5.11994 5.99931 5.5 6ZM21.87 18.37C21.87 18.7678 21.712 19.1494 21.4307 19.4307C21.1494 19.712 20.7678 19.87 20.37 19.87H5.5C5.10218 19.87 4.72064 19.712 4.43934 19.4307C4.15804 19.1494 4 18.7678 4 18.37V8.535C6.36 9.775 8.71 11.035 11.07 12.285C11.4915 12.5437 11.9455 12.7455 12.42 12.885C13.1144 12.9981 13.8261 12.8522 14.42 12.475C15.87 11.715 17.31 10.945 18.76 10.185C19.8 9.625 20.83 9.085 21.87 8.535V18.37Z" fill="#F5F5F5"/>
</svg>
