<svg width="26" height="26" viewBox="0 0 26 26" fill="none" xmlns="http://www.w3.org/2000/svg">
<path fill-rule="evenodd" clip-rule="evenodd" d="M6.93484 5C6.87084 5 6.80748 5.01264 6.74838 5.0372C6.68929 5.06176 6.63563 5.09776 6.59048 5.14312L6.5896 5.144C5.66579 6.06762 5.10621 7.29352 5.01365 8.59657C4.92108 9.8996 5.30172 11.1923 6.08566 12.2372L7.36616 13.9435C8.75435 15.7944 10.3987 17.4387 12.2496 18.8269L13.9559 20.1075C15.0008 20.8914 16.2935 21.2721 17.5966 21.1795C18.8996 21.087 20.1255 20.5274 21.0492 19.6036L21.05 19.6027C21.0954 19.5575 21.1314 19.5039 21.156 19.4448C21.1805 19.3857 21.1932 19.3223 21.1932 19.2583C21.1932 19.1943 21.1805 19.131 21.156 19.0719C21.1314 19.0128 21.0954 18.9591 21.05 18.914L21.0492 18.9131L19.0341 16.898V16.9001L18.1803 16.0453C18.1262 15.9911 18.0618 15.9481 17.991 15.9187C17.9202 15.8894 17.8443 15.8743 17.7676 15.8743C17.691 15.8743 17.6151 15.8894 17.5442 15.9187C17.4734 15.9481 17.4091 15.9911 17.3549 16.0453L16.2515 17.1488L16.2503 17.15C16.0905 17.3108 15.884 17.417 15.6603 17.4533C15.4363 17.4897 15.2067 17.4542 15.0041 17.352C12.3372 16.0184 10.1746 13.8559 8.84109 11.1889C8.73894 10.9864 8.70349 10.7568 8.73983 10.5329C8.77617 10.3091 8.88243 10.1025 9.04336 9.9427L9.0444 9.94166L10.1486 8.83741C10.258 8.72802 10.3194 8.57965 10.3194 8.42499C10.3194 8.27034 10.258 8.12201 10.1487 8.01263L7.28004 5.14396L7.27919 5.14312C7.23405 5.09776 7.18039 5.06176 7.12129 5.0372C7.0622 5.01264 6.99883 5 6.93484 5ZM17 15C17.1856 14.8704 17.482 14.7408 17.991 14.8704C18.5 15 21.7555 18.2052 21.7555 18.2052C21.8939 18.3431 22.0044 18.5077 22.0794 18.6881C22.1545 18.8688 22.1932 19.0626 22.1932 19.2583C22.1932 19.454 22.1545 19.6478 22.0794 19.8286C22.0044 20.0091 21.8944 20.1731 21.7559 20.311C20.6621 21.4048 19.2105 22.0674 17.6674 22.177C16.1242 22.2866 14.5933 21.8358 13.3558 20.9074L11.6496 19.6269C9.7229 18.1819 8.01137 16.4704 6.56635 14.5437L5.28585 12.8374C4.35739 11.5999 3.90653 10.0689 4.01616 8.52571C4.12577 6.9827 4.78833 5.53102 5.88217 4.43722C6.02013 4.29872 6.18407 4.18881 6.3646 4.11378C6.54533 4.03867 6.73912 4 6.93484 4C7.13056 4 7.32435 4.03867 7.50508 4.11378C7.68562 4.18882 7.84957 4.29874 7.98755 4.43726L10.8558 7.30552C11.1526 7.60244 11.3194 8.00515 11.3194 8.42499C11.3194 8.84484 11.1527 9.24749 10.8559 9.54441L9.74973 10.6505L9.74794 10.6523C9.73679 10.6634 9.72943 10.6777 9.72691 10.6931C9.7244 10.7086 9.72686 10.7245 9.73395 10.7385L9.73507 10.7407C10.972 13.215 12.9782 15.2212 15.4524 16.4581L15.4546 16.4592C15.4686 16.4663 15.4845 16.4688 15.5 16.4663C15.5155 16.4637 15.5298 16.4564 15.5408 16.4452L15.5426 16.4434L16.6474 15.3386" fill="#F5F5F5"/>
</svg>
