<svg width="21" height="21" viewBox="0 0 21 21" fill="none" xmlns="http://www.w3.org/2000/svg">
<path d="M20.5 8.60373V2.5C20.5 1.39543 19.6046 0.5 18.5 0.5H4.5081M20.5 12.0073V16.9019M4.5081 0.5H3C1.89543 0.5 1 1.39543 1 2.5V18.5C1 19.6046 1.89543 20.5 3 20.5H18.5C19.6046 20.5 20.5 19.6046 20.5 18.5V16.9019M4.5081 0.5V4.35737M4.5081 18.3606V12.9473M3.05429 16.9019H8.33225M20.5 16.9019H16.5178M3.05429 4.35737H4.5081M4.5081 4.35737V8.60373M3.05429 8.60373H4.5081M4.5081 8.60373V12.9473M3.05429 12.9473H4.5081M16.5178 18.3606V16.9019M16.5178 16.9019H12.5673M12.5673 18.3606V16.9019M12.5673 16.9019H8.33225M8.33225 18.3606V16.9019M6.65721 14.6977L18.1297 2.93112" stroke="#F5F5F5" stroke-linecap="round"/>
<path d="M6.50061 12.4591V14.8588H8.79228M15.9895 2.80756H18.2506V5.08267" stroke="#F5F5F5" stroke-linecap="round"/>
<ellipse cx="20.5" cy="10.2436" rx="0.5" ry="0.512821" fill="#F5F5F5"/>
</svg>
