<svg width="23" height="20" viewBox="0 0 23 20" fill="none" xmlns="http://www.w3.org/2000/svg">
<path fill-rule="evenodd" clip-rule="evenodd" d="M0 10C4.82825e-08 9.44771 0.447715 9 1 9L21 9C21.5523 9 22 9.44772 22 10C22 10.5523 21.5523 11 21 11L1 11C0.447715 11 -4.8282e-08 10.5523 0 10Z" fill="#696969"/>
<path fill-rule="evenodd" clip-rule="evenodd" d="M11.2929 0.292893C11.6834 -0.0976311 12.3166 -0.0976311 12.7071 0.292893L22.4142 10L12.7071 19.7071C12.3166 20.0976 11.6834 20.0976 11.2929 19.7071C10.9024 19.3166 10.9024 18.6834 11.2929 18.2929L19.5858 10L11.2929 1.70711C10.9024 1.31658 10.9024 0.683417 11.2929 0.292893Z" fill="#696969"/>
</svg>
