<svg width="36" height="36" viewBox="0 0 36 36" fill="none" xmlns="http://www.w3.org/2000/svg">
<path d="M24.6321 27.2975C24.7603 27.1746 24.8607 27.0258 24.9265 26.8609L28.2936 9.66207C28.2936 8.51501 26.7389 9.20677 26.7389 9.20677L7.82652 16.7209C7.82652 16.7209 6.93181 17.0315 7.00416 17.6032C7.07299 18.1803 7.80358 18.4415 7.80358 18.4415L12.5595 20.0615L23.9824 12.7132C23.9824 12.7132 24.6406 12.3074 24.6195 12.7132C24.6195 12.7132 24.7377 12.7856 24.3812 13.1191C24.03 13.4527 15.4095 21.3021 15.4095 21.3021L15.3971 21.4062L15.3795 21.3903L14.79 26.665C14.8729 26.6966 14.9624 26.7068 15.0503 26.6948C15.1382 26.6828 15.2216 26.6489 15.293 26.5962L18.3671 23.7585L23.1583 27.4821C23.3128 27.5695 23.4842 27.6229 23.661 27.6386C23.8379 27.6543 24.016 27.632 24.1835 27.5732C24.351 27.5143 24.504 27.4203 24.6321 27.2975Z" fill="#F5F5F5"/>
</svg>
