<svg id="sprite" xmlns="http://www.w3.org/2000/svg"><symbol id="sprite:bath" viewBox="0 0 22 21">
<path d="M1.896 10.4841V10.4841C1.896 14.646 5.26988 18.0199 9.43177 18.0199H12.8882C17.0501 18.0199 20.424 14.646 20.424 10.4841V10.4841M1.896 10.4841H20.424M1.896 10.4841H1.69952C1.31319 10.4841 1 10.1709 1 9.78458V9.78458C1 9.39824 1.31319 9.08506 1.69952 9.08506H1.896M20.424 10.4841V10.4841C20.7421 10.4841 21 10.2262 21 9.9081V9.78458C21 9.39824 20.6868 9.08506 20.3005 9.08506H19.752M1.896 9.08506V2.42C1.896 1.35961 2.75561 0.5 3.816 0.5H4.40055C5.1381 0.5 5.736 1.0979 5.736 1.83545V2.45091C5.736 2.84855 5.41365 3.17091 5.016 3.17091H4.93193C4.58072 3.17091 4.296 2.88619 4.296 2.53498V2.42705C4.296 2.13544 4.05961 1.89905 3.768 1.89905V1.89905C3.47639 1.89905 3.24 2.13544 3.24 2.42705V8.35374M1.896 9.08506H3.24M3.24 9.08506V8.35374M3.24 9.08506H19.752M3.24 8.35374C3.67733 7.48463 4.9616 6.19157 6.6 7.97218C6.984 7.27266 7.144 6.70032 8.104 6.70032C8.872 6.70032 9.256 7.54823 9.352 7.97218C9.37333 7.7708 9.6144 7.36804 10.408 7.36804C11.2016 7.36804 11.5493 7.7708 11.624 7.97218C11.5493 7.30445 11.752 5.969 13.16 5.969C14.568 5.969 14.8347 6.9017 14.792 7.36804C14.9413 7.01828 15.432 6.39507 16.2 6.70032C16.968 7.00556 17.224 7.67541 17.256 7.97218C17.4693 7.64361 18.2182 7.11455 18.856 7.36804C19.496 7.62242 19.72 8.13116 19.752 9.08506M5 17.1932L4.12508 19.1009C3.96938 19.4404 4.10474 19.8425 4.43406 20.0187V20.0187C4.79299 20.2107 5.23954 20.0606 5.40957 19.6907L6.28 17.7973M16.072 17.7655L17.0459 19.8995C17.1953 20.2267 17.5875 20.3633 17.9078 20.1996V20.1996C18.2064 20.0471 18.3337 19.6878 18.1978 19.3813L17.256 17.2568M18.344 3.93891V4.08812C18.344 4.51228 18.0002 4.85612 17.576 4.85612V4.85612C17.1518 4.85612 16.808 4.51228 16.808 4.08812V3.93891C16.808 3.51475 17.1518 3.17091 17.576 3.17091V3.17091C18.0002 3.17091 18.344 3.51475 18.344 3.93891ZM9.032 4.60643V4.72425C9.032 5.13074 8.70248 5.46025 8.296 5.46025V5.46025C7.88952 5.46025 7.56 5.13074 7.56 4.72425V4.60643C7.56 4.19995 7.88952 3.87043 8.296 3.87043V3.87043C8.70248 3.87043 9.032 4.19995 9.032 4.60643ZM14.152 4.1248V4.1248C13.6041 4.1248 13.16 3.68067 13.16 3.1328V2.89105C13.16 2.34318 13.6041 1.89905 14.152 1.89905V1.89905C14.6999 1.89905 15.144 2.34318 15.144 2.89105V3.1328C15.144 3.68067 14.6999 4.1248 14.152 4.1248Z" stroke-linecap="round"></path>
</symbol><symbol id="sprite:bed" viewBox="0 0 21 21">
<path d="M0 16.9561H20M0 16.9561V14.8509C0 14.1145 0.596954 13.5175 1.33333 13.5175V13.5175M0 16.9561V16.9845C0 18.054 0.867004 18.9211 1.93651 18.9211V18.9211M20 16.9561V14.8191C20 14.1003 19.4173 13.5175 18.6984 13.5175V13.5175M20 16.9561V17.6195C20 18.3383 19.4173 18.9211 18.6984 18.9211V18.9211M18.6984 13.5175V12.8926C18.6984 11.8231 17.8314 10.9561 16.7619 10.9561V10.9561M18.6984 13.5175H1.33333M1.33333 13.5175V12.8609C1.33333 11.8089 2.18612 10.9561 3.2381 10.9561V10.9561M3.2381 10.9561V7.00877C3.2381 5.35192 4.58124 4.00877 6.2381 4.00877H7.46032V3.97368C7.46032 2.86911 8.35575 1.97368 9.46032 1.97368H10.6667C11.7712 1.97368 12.6667 2.86911 12.6667 3.97368V4.00877H13.7619C15.4188 4.00877 16.7619 5.35192 16.7619 7.00877V10.9561M3.2381 10.9561H16.7619M1.93651 18.9211V18.9211C1.93651 19.7931 2.64343 20.5 3.51546 20.5H4.26232C5.13435 20.5 5.84127 19.7931 5.84127 18.9211V18.9211M1.93651 18.9211H5.84127M5.84127 18.9211H14.6667M14.6667 18.9211V18.9211C14.6667 19.7931 15.3736 20.5 16.2456 20.5H17.1195C17.9915 20.5 18.6984 19.7931 18.6984 18.9211V18.9211M14.6667 18.9211H18.6984M6.60318 10.7456H6.66667C7.42935 10.7456 8.04762 10.0623 8.04762 9.2193C8.04762 8.37634 7.42935 7.69298 6.66667 7.69298H6.60318C5.8405 7.69298 5.22222 8.37634 5.22222 9.2193C5.22222 10.0623 5.8405 10.7456 6.60318 10.7456ZM13.2222 10.7456H13.2857C14.0484 10.7456 14.6667 10.0623 14.6667 9.2193C14.6667 8.37634 14.0484 7.69298 13.2857 7.69298H13.2222C12.4595 7.69298 11.8413 8.37634 11.8413 9.2193C11.8413 10.0623 12.4595 10.7456 13.2222 10.7456ZM18.8889 1.95614V1.95614C18.8889 2.46967 18.4659 2.88596 17.9524 2.88596V2.88596C17.4389 2.88596 17.0159 2.46967 17.0159 1.95614V1.95614C17.0159 1.44261 17.4389 1.02632 17.9524 1.02632V1.02632C18.4659 1.02632 18.8889 1.44261 18.8889 1.95614ZM3.49206 1.9127V2.13993C3.49206 2.92014 2.85958 3.55263 2.07937 3.55263V3.55263C1.29915 3.55263 0.666667 2.92014 0.666667 2.13993V1.9127C0.666667 1.13249 1.29915 0.5 2.07937 0.5V0.5C2.85958 0.5 3.49206 1.13249 3.49206 1.9127Z" stroke-linecap="round"></path>
</symbol><symbol id="sprite:cross" viewBox="0 0 17 18">
<path fill-rule="evenodd" clip-rule="evenodd" d="M16.8536 0.646447C16.6583 0.451184 16.3417 0.451184 16.1464 0.646447L0.146446 16.6464C-0.0488153 16.8417 -0.0488153 17.1583 0.146446 17.3536C0.341709 17.5488 0.65829 17.5488 0.853553 17.3536L16.8536 1.35355C17.0488 1.15829 17.0488 0.841709 16.8536 0.646447Z"></path>
<path fill-rule="evenodd" clip-rule="evenodd" d="M0.146448 0.646447C-0.0488146 0.841709 -0.0488146 1.15829 0.146448 1.35355L16.1464 17.3536C16.3417 17.5488 16.6583 17.5488 16.8536 17.3536C17.0488 17.1583 17.0488 16.8417 16.8536 16.6464L0.853554 0.646447C0.658292 0.451185 0.34171 0.451185 0.146448 0.646447Z"></path>
</symbol><symbol id="sprite:mail" viewBox="0 0 26 26">
<path d="M20.37 5H5.5C4.83696 5 4.20107 5.26339 3.73223 5.73223C3.26339 6.20107 3 6.83696 3 7.5V18.37C3 19.033 3.26339 19.6689 3.73223 20.1378C4.20107 20.6066 4.83696 20.87 5.5 20.87H20.37C21.033 20.87 21.6689 20.6066 22.1378 20.1378C22.6066 19.6689 22.87 19.033 22.87 18.37V7.5C22.87 6.83696 22.6066 6.20107 22.1378 5.73223C21.6689 5.26339 21.033 5 20.37 5ZM5.5 6H20.37C20.7484 5.99915 21.113 6.14233 21.3898 6.40048C21.6665 6.65863 21.8346 7.01241 21.86 7.39C19.39 8.71 16.91 10.02 14.43 11.34C14.095 11.5512 13.74 11.7287 13.37 11.87C13.0799 11.9274 12.7809 11.9224 12.4929 11.8551C12.205 11.7879 11.9346 11.66 11.7 11.48C10.28 10.73 8.86 9.97 7.45 9.22C6.31 8.62 5.15 8.01 4.01 7.4C4.03296 7.02063 4.20002 6.66437 4.477 6.40412C4.75398 6.14387 5.11994 5.99931 5.5 6ZM21.87 18.37C21.87 18.7678 21.712 19.1494 21.4307 19.4307C21.1494 19.712 20.7678 19.87 20.37 19.87H5.5C5.10218 19.87 4.72064 19.712 4.43934 19.4307C4.15804 19.1494 4 18.7678 4 18.37V8.535C6.36 9.775 8.71 11.035 11.07 12.285C11.4915 12.5437 11.9455 12.7455 12.42 12.885C13.1144 12.9981 13.8261 12.8522 14.42 12.475C15.87 11.715 17.31 10.945 18.76 10.185C19.8 9.625 20.83 9.085 21.87 8.535V18.37Z"></path>
</symbol><symbol id="sprite:phone" viewBox="0 0 26 26">
<path fill-rule="evenodd" clip-rule="evenodd" d="M6.93484 5C6.87084 5 6.80748 5.01264 6.74838 5.0372C6.68929 5.06176 6.63563 5.09776 6.59048 5.14312L6.5896 5.144C5.66579 6.06762 5.10621 7.29352 5.01365 8.59657C4.92108 9.8996 5.30172 11.1923 6.08566 12.2372L7.36616 13.9435C8.75435 15.7944 10.3987 17.4387 12.2496 18.8269L13.9559 20.1075C15.0008 20.8914 16.2935 21.2721 17.5966 21.1795C18.8996 21.087 20.1255 20.5274 21.0492 19.6036L21.05 19.6027C21.0954 19.5575 21.1314 19.5039 21.156 19.4448C21.1805 19.3857 21.1932 19.3223 21.1932 19.2583C21.1932 19.1943 21.1805 19.131 21.156 19.0719C21.1314 19.0128 21.0954 18.9591 21.05 18.914L21.0492 18.9131L19.0341 16.898V16.9001L18.1803 16.0453C18.1262 15.9911 18.0618 15.9481 17.991 15.9187C17.9202 15.8894 17.8443 15.8743 17.7676 15.8743C17.691 15.8743 17.6151 15.8894 17.5442 15.9187C17.4734 15.9481 17.4091 15.9911 17.3549 16.0453L16.2515 17.1488L16.2503 17.15C16.0905 17.3108 15.884 17.417 15.6603 17.4533C15.4363 17.4897 15.2067 17.4542 15.0041 17.352C12.3372 16.0184 10.1746 13.8559 8.84109 11.1889C8.73894 10.9864 8.70349 10.7568 8.73983 10.5329C8.77617 10.3091 8.88243 10.1025 9.04336 9.9427L9.0444 9.94166L10.1486 8.83741C10.258 8.72802 10.3194 8.57965 10.3194 8.42499C10.3194 8.27034 10.258 8.12201 10.1487 8.01263L7.28004 5.14396L7.27919 5.14312C7.23405 5.09776 7.18039 5.06176 7.12129 5.0372C7.0622 5.01264 6.99883 5 6.93484 5ZM17 15C17.1856 14.8704 17.482 14.7408 17.991 14.8704C18.5 15 21.7555 18.2052 21.7555 18.2052C21.8939 18.3431 22.0044 18.5077 22.0794 18.6881C22.1545 18.8688 22.1932 19.0626 22.1932 19.2583C22.1932 19.454 22.1545 19.6478 22.0794 19.8286C22.0044 20.0091 21.8944 20.1731 21.7559 20.311C20.6621 21.4048 19.2105 22.0674 17.6674 22.177C16.1242 22.2866 14.5933 21.8358 13.3558 20.9074L11.6496 19.6269C9.7229 18.1819 8.01137 16.4704 6.56635 14.5437L5.28585 12.8374C4.35739 11.5999 3.90653 10.0689 4.01616 8.52571C4.12577 6.9827 4.78833 5.53102 5.88217 4.43722C6.02013 4.29872 6.18407 4.18881 6.3646 4.11378C6.54533 4.03867 6.73912 4 6.93484 4C7.13056 4 7.32435 4.03867 7.50508 4.11378C7.68562 4.18882 7.84957 4.29874 7.98755 4.43726L10.8558 7.30552C11.1526 7.60244 11.3194 8.00515 11.3194 8.42499C11.3194 8.84484 11.1527 9.24749 10.8559 9.54441L9.74973 10.6505L9.74794 10.6523C9.73679 10.6634 9.72943 10.6777 9.72691 10.6931C9.7244 10.7086 9.72686 10.7245 9.73395 10.7385L9.73507 10.7407C10.972 13.215 12.9782 15.2212 15.4524 16.4581L15.4546 16.4592C15.4686 16.4663 15.4845 16.4688 15.5 16.4663C15.5155 16.4637 15.5298 16.4564 15.5408 16.4452L15.5426 16.4434L16.6474 15.3386"></path>
</symbol><symbol id="sprite:r" viewBox="0 0 36 36">
<path fill-rule="evenodd" clip-rule="evenodd" d="M9 23.7143V10.8572H21.4286C22.5714 11 24.8571 12.1429 24.8571 15.5715C24.8571 19 23.1429 19.5715 22.2857 19.4286L25.2857 23.7143H21.4286L18.4286 19.4286H12.4286V23.7143H9ZM12.4285 16.8572V13.4286H19.7142C20.661 13.4286 21.4285 14.1961 21.4285 15.1429C21.4285 16.0897 20.661 16.8572 19.7142 16.8572H12.4285Z"></path>
<circle cx="25.2858" cy="8.71429" r="1.71429"></circle>
</symbol><symbol id="sprite:settings" viewBox="0 0 20 11">
<path fill-rule="evenodd" clip-rule="evenodd" d="M2 3.5C2.55228 3.5 3 3.05228 3 2.5C3 1.94772 2.55228 1.5 2 1.5C1.44772 1.5 1 1.94772 1 2.5C1 3.05228 1.44772 3.5 2 3.5ZM2 4.5C3.10457 4.5 4 3.60457 4 2.5C4 1.39543 3.10457 0.5 2 0.5C0.895431 0.5 0 1.39543 0 2.5C0 3.60457 0.895431 4.5 2 4.5Z"></path>
<path fill-rule="evenodd" clip-rule="evenodd" d="M8 2.5C8 2.22386 8.22386 2 8.5 2H18.5C18.7761 2 19 2.22386 19 2.5C19 2.77614 18.7761 3 18.5 3H8.5C8.22386 3 8 2.77614 8 2.5Z"></path>
<path fill-rule="evenodd" clip-rule="evenodd" d="M18 9.5C17.4477 9.5 17 9.05228 17 8.5C17 7.94772 17.4477 7.5 18 7.5C18.5523 7.5 19 7.94772 19 8.5C19 9.05228 18.5523 9.5 18 9.5ZM18 10.5C16.8954 10.5 16 9.60457 16 8.5C16 7.39543 16.8954 6.5 18 6.5C19.1046 6.5 20 7.39543 20 8.5C20 9.60457 19.1046 10.5 18 10.5Z"></path>
<path fill-rule="evenodd" clip-rule="evenodd" d="M12 8.5C12 8.22386 11.7761 8 11.5 8H1.5C1.22386 8 1 8.22386 1 8.5C1 8.77614 1.22386 9 1.5 9H11.5C11.7761 9 12 8.77614 12 8.5Z"></path>
</symbol><symbol id="sprite:size" viewBox="0 0 21 21">
<path d="M20.5 8.60373V2.5C20.5 1.39543 19.6046 0.5 18.5 0.5H4.5081M20.5 12.0073V16.9019M4.5081 0.5H3C1.89543 0.5 1 1.39543 1 2.5V18.5C1 19.6046 1.89543 20.5 3 20.5H18.5C19.6046 20.5 20.5 19.6046 20.5 18.5V16.9019M4.5081 0.5V4.35737M4.5081 18.3606V12.9473M3.05429 16.9019H8.33225M20.5 16.9019H16.5178M3.05429 4.35737H4.5081M4.5081 4.35737V8.60373M3.05429 8.60373H4.5081M4.5081 8.60373V12.9473M3.05429 12.9473H4.5081M16.5178 18.3606V16.9019M16.5178 16.9019H12.5673M12.5673 18.3606V16.9019M12.5673 16.9019H8.33225M8.33225 18.3606V16.9019M6.65721 14.6977L18.1297 2.93112" stroke-linecap="round"></path>
<path d="M6.50061 12.4591V14.8588H8.79228M15.9895 2.80756H18.2506V5.08267" stroke-linecap="round"></path>
<ellipse cx="20.5" cy="10.2436" rx="0.5" ry="0.512821"></ellipse>
</symbol><symbol id="sprite:star" viewBox="0 0 36 36">
<path d="M18 0L20.3676 11.0258C20.8633 13.3338 22.6662 15.1367 24.9742 15.6324L36 18L24.9742 20.3676C22.6662 20.8633 20.8633 22.6662 20.3676 24.9742L18 36L15.6324 24.9742C15.1367 22.6662 13.3338 20.8633 11.0258 20.3676L0 18L11.0258 15.6324C13.3338 15.1367 15.1367 13.3338 15.6324 11.0258L18 0Z"></path>
</symbol><symbol id="sprite:tail-arrow-plump" viewBox="0 0 23 20">
<path fill-rule="evenodd" clip-rule="evenodd" d="M0 10C4.82825e-08 9.44771 0.447715 9 1 9L21 9C21.5523 9 22 9.44772 22 10C22 10.5523 21.5523 11 21 11L1 11C0.447715 11 -4.8282e-08 10.5523 0 10Z"></path>
<path fill-rule="evenodd" clip-rule="evenodd" d="M11.2929 0.292893C11.6834 -0.0976311 12.3166 -0.0976311 12.7071 0.292893L22.4142 10L12.7071 19.7071C12.3166 20.0976 11.6834 20.0976 11.2929 19.7071C10.9024 19.3166 10.9024 18.6834 11.2929 18.2929L19.5858 10L11.2929 1.70711C10.9024 1.31658 10.9024 0.683417 11.2929 0.292893Z"></path>
</symbol><symbol id="sprite:tail-arrow" viewBox="0 0 24 12">
<path fill-rule="evenodd" clip-rule="evenodd" d="M16.9248 0.146447C17.12 -0.0488155 17.4366 -0.0488155 17.6319 0.146447L23.4854 6L17.6319 11.8536C17.4366 12.0488 17.12 12.0488 16.9248 11.8536C16.7295 11.6583 16.7295 11.3417 16.9248 11.1464L21.5712 6.5H0.77832C0.502178 6.5 0.27832 6.27614 0.27832 6C0.27832 5.72386 0.502178 5.5 0.77832 5.5H21.5712L16.9248 0.853553C16.7295 0.658291 16.7295 0.341709 16.9248 0.146447Z"></path>
</symbol><symbol id="sprite:tg" viewBox="0 0 36 36">
<path d="M24.6321 27.2975C24.7603 27.1746 24.8607 27.0258 24.9265 26.8609L28.2936 9.66207C28.2936 8.51501 26.7389 9.20677 26.7389 9.20677L7.82652 16.7209C7.82652 16.7209 6.93181 17.0315 7.00416 17.6032C7.07299 18.1803 7.80358 18.4415 7.80358 18.4415L12.5595 20.0615L23.9824 12.7132C23.9824 12.7132 24.6406 12.3074 24.6195 12.7132C24.6195 12.7132 24.7377 12.7856 24.3812 13.1191C24.03 13.4527 15.4095 21.3021 15.4095 21.3021L15.3971 21.4062L15.3795 21.3903L14.79 26.665C14.8729 26.6966 14.9624 26.7068 15.0503 26.6948C15.1382 26.6828 15.2216 26.6489 15.293 26.5962L18.3671 23.7585L23.1583 27.4821C23.3128 27.5695 23.4842 27.6229 23.661 27.6386C23.8379 27.6543 24.016 27.632 24.1835 27.5732C24.351 27.5143 24.504 27.4203 24.6321 27.2975Z"></path>
</symbol><symbol id="sprite:vk" viewBox="0 0 36 36">
<path d="M10.1588 10H6C6.19731 19.5568 10.9329 25.3 19.2352 25.3H19.7058V19.8324C22.7565 20.1387 25.0636 22.3901 25.9895 25.3H30.3C29.1161 20.9505 26.0046 18.5459 24.0618 17.627C26.0046 16.4937 28.7367 13.7369 29.3893 10H25.4734C24.6234 13.0324 22.1039 15.7892 19.7058 16.0495V10H15.7898V20.5982C13.3613 19.9856 10.2954 17.0144 10.1588 10Z"></path>
</symbol></svg>