<svg width="62" height="61" viewBox="0 0 62 61" fill="none" xmlns="http://www.w3.org/2000/svg">
<path d="M12.3701 41.6492C10.639 45.6699 15.2386 48.8072 17.7621 46.2874M12.3701 41.6492C13.0067 40.1244 15.0424 37.9514 18.31 40.585M12.3701 41.6492C10.8383 38.6844 9.30646 32.3988 15.4337 30.9757C15.6009 30.5766 15.8717 30.1392 16.2548 29.7256C17.8223 28.0332 21.269 26.7384 27.1777 30.0862C29.3903 29.4933 34.0199 29.1078 34.8368 32.3099C35.6538 35.512 33.2049 38.6844 31.8784 39.8703M19.008 43.8729C18.7398 44.963 18.2977 45.7526 17.7621 46.2874M19.008 41.2045C18.7694 40.9737 18.5368 40.7678 18.31 40.585M14.9231 41.2045C16.1146 41.501 18.0889 42.8945 16.455 46.0966M17.7621 46.2874C18.3405 47.6003 20.1991 49.7095 23.6035 49.9889C26.3212 49.7395 31.7811 47.3666 31.8784 39.8703M30.0019 35.2938C30.7582 35.7879 31.5475 37.6415 31.8784 39.8703M18.31 40.585C18.588 39.6056 18.9771 37.113 18.31 34.9783C21.0957 36.609 27.6883 38.6251 31.7732 33.6441M23.0929 44.7624C24.2843 45.6518 26.4576 46.0076 28.5 43.8729" stroke="#2C2C2C" stroke-linecap="round" stroke-linejoin="round"/>
<path d="M8.5 53.5V28.3401C8.5 23.2916 12.263 19.0349 17.2734 18.4156L28 17.0899M53 14L42.2641 15.3269M19 11.9L9.84119 12.9685C4.80082 13.5566 1 17.8266 1 22.9012V50.132C1 55.9824 6.00026 60.5833 11.8305 60.0975L51.8305 56.7641C57.0134 56.3322 61 51.9996 61 46.7987V18.2345C61 12.2524 55.783 7.60866 49.8412 8.30186L42.1147 9.20328M19 11.9V5.60189C19 4.10894 20.0978 2.84317 21.5757 2.63204L30.4047 1.37076C32.1062 1.12769 33.8415 1.32726 35.4434 1.9502L40.758 4.01699C41.5102 4.3095 42.0128 5.02543 42.0325 5.83224L42.1147 9.20328M19 11.9L28 10.85M28 6.5V10.85M28 10.85V17.0899M42.1147 9.20328L42.2641 15.3269M42.2641 15.3269L42.4038 22.2385C42.4577 24.9048 40.4094 27.1442 37.7488 27.3277L33.344 27.6314C30.454 27.8308 28 25.5401 28 22.6433V17.0899M38.8583 43.4072L55.7851 41.5773C56.2513 41.5269 56.6922 41.3399 57.0524 41.0397L57.3203 40.8164C58.4082 39.9098 58.3175 38.2117 57.1392 37.4261V37.4261C56.7262 37.1508 56.2297 37.0292 55.7363 37.0826L38.8429 38.9089C38.2974 38.9678 37.7885 39.2115 37.4005 39.5995L37.1534 39.8466C36.2714 40.7286 36.3519 42.1815 37.3259 42.9607V42.9607C37.7577 43.3061 38.3086 43.4666 38.8583 43.4072ZM37.1534 32.3466L37.4005 32.0995C37.7885 31.7115 38.2974 31.4678 38.8429 31.4089L55.7363 29.5826C56.2297 29.5292 56.7262 29.6508 57.1392 29.9261V29.9261C58.3175 30.7117 58.4082 32.4098 57.3203 33.3164L57.0524 33.5397C56.6922 33.8399 56.2513 34.0269 55.7851 34.0773L38.8583 35.9072C38.3086 35.9666 37.7577 35.8061 37.3259 35.4607V35.4607C36.3519 34.6815 36.2714 33.2286 37.1534 32.3466Z" stroke="#2C2C2C" stroke-linecap="round" stroke-linejoin="round"/>
</svg>
