<svg width="60" height="60" viewBox="0 0 60 60" fill="none" xmlns="http://www.w3.org/2000/svg">
<path d="M58 29.5V27C58 25.8954 57.1046 25 56 25V25M58 29.5H49H40M58 29.5V42.5M58 42.5V47M58 42.5H49M58 47V51C58 53.7614 55.7614 56 53 56H43M58 47H49M4.5 29.5V29.5C3.67157 29.5 3 28.8284 3 28V26.5C3 25.6716 3.67157 25 4.5 25V25M4.5 29.5V42.5M4.5 29.5H13M4.5 42.5V42.5C3.67157 42.5 3 43.1716 3 44V45.5C3 46.3284 3.67157 47 4.5 47V47M4.5 42.5H22M13 29.5V36M13 29.5H22M22 29.5V42.5M22 29.5H31M22 42.5H31M31 29.5V42.5M31 29.5H40M31 42.5H40M40 29.5V42.5M40 42.5H49M49 42.5V36M4.5 47V51C4.5 53.7614 6.73858 56 9.5 56H17M4.5 47H7M13 47C12.5 49.5 12.6 54.8 17 56M13 47H31M13 47H11M17 56H31M22 47C21.5 49.5 21.6 54.8 26 56M31 47V56M31 47H49M31 56H43M49 47C49.5 50 49 56 43 56M40 47C40.5 50 40 56 34 56M4.5 25C4.33333 23.1667 5 19.8 9 21C9.66667 19.3333 11.8 16.6 15 19C15.5 17.6667 17.7 15.9 20.5 17.5M4.5 25H56M41 17.5C42.3333 16.6667 45.4 15.7 47 18.5C48.6667 17.6667 52.2 17 53 21C54.5 21.1667 57.2 22.2 56 25M51.5 3L52.933 5.50772C53.2843 6.12259 53.2843 6.87741 52.933 7.49228L52.1133 8.92679C51.7374 9.58452 51.7654 10.3982 52.1856 11.0285L52.8562 12.0343C53.2543 12.6315 53.3019 13.3962 52.9809 14.0381L52.5 15M8.5 3L9.2916 4.5832C9.70666 5.41332 9.4961 6.41991 8.78312 7.01407L8.68245 7.09796C7.77898 7.85085 7.71701 9.21701 8.54861 10.0486L9.04253 10.5425C9.62081 11.1208 9.78876 11.9929 9.46661 12.7446L8.5 15" stroke="#2C2C2C" stroke-linecap="round" stroke-linejoin="round"/>
<path d="M20.5657 17.6822C18.8705 22.2025 23.3745 25.7297 25.8457 22.8968M20.5657 17.6822C21.1891 15.9678 23.1824 13.5247 26.3822 16.4857M20.5657 17.6822C19.0657 14.3488 17.0657 7.79023 23.0657 6.19023C24.399 4.02357 28.7657 0.790233 35.5657 5.19023C37.7323 4.52357 42.7657 4.09023 43.5657 7.69023C44.3657 11.2902 41.8647 13.8569 40.5657 15.1902M27.0657 20.1822C26.803 21.4077 26.3701 22.2955 25.8457 22.8968M27.0657 17.1822C26.8321 16.9226 26.6042 16.6911 26.3822 16.4857M23.0657 17.1822C24.2323 17.5155 26.1657 19.0822 24.5657 22.6822M25.8457 22.8968C26.136 23.6535 26.8874 24.3657 28 25M37.0657 25C41.0657 21.9919 41.0721 19.1058 40.5657 15.1902M38.5657 11.2112C39.3063 11.7667 40.2416 12.6844 40.5657 15.1902M26.3822 16.4857C26.6544 15.3845 27.2189 13.0902 26.5657 10.6902C29.2935 12.5236 36.5657 14.7902 40.5657 9.19023M31.0657 21.1822C32.2323 22.1822 35.0657 23.5822 37.0657 21.1822" stroke="#2C2C2C" stroke-linecap="round" stroke-linejoin="round"/>
</svg>
