<svg width="60" height="60" viewBox="0 0 60 60" fill="none" xmlns="http://www.w3.org/2000/svg">
<path d="M8.23003 18.9417L28.23 27.4417C28.73 27.7751 30.33 28.1417 32.73 26.9417L46.1775 21.228M57.4422 16.4417V16.4417C56.7442 15.3755 55.6187 14.6997 54.4338 14.2307L32.23 5.44172C30.63 4.64172 28.5634 5.10839 27.73 5.44172L5.97038 14.2382C4.81269 14.7062 3.65045 15.2312 2.74242 16.0883C0.321578 18.3736 0.788895 20.7729 1.94869 22.5308C2.90791 23.9848 4.54429 24.781 6.15214 25.4509L11.534 27.6934M57.4422 16.4417C58.7538 18.445 59.5674 21.332 56.8604 23.4932C56.4582 23.8144 55.9932 24.0453 55.5217 24.2516L51.73 25.9105M57.4422 16.4417C54.8217 17.5552 50.732 19.2929 50.732 19.2929M11.534 27.6934L27.73 34.4417C30.13 35.6417 31.73 35.9417 33.23 34.9417L47.23 27.8792M11.534 27.6934V37.0914C11.534 37.9758 11.7529 38.8562 12.2776 39.5681C16.4803 45.2704 28.2147 52.1333 45.833 42.387M26.23 14.9417C27.3967 15.7751 30.33 16.9417 32.73 14.9417M46.73 38.9417C45.0634 43.7751 43.73 54.5417 49.73 54.9417C57.23 55.4417 52.73 39.9417 51.73 38.9417M47.23 33.4417V27.8792M33.23 17.4417C37.3305 18.418 44.23 19.9417 44.23 19.9417C45.0936 20.2296 45.7242 20.6987 46.1775 21.228M35.73 14.4417L48.73 17.9417C49.6287 18.2413 50.2751 18.7372 50.732 19.2929M51.73 33.9417V21.9417C51.73 21.3162 51.4953 20.2211 50.732 19.2929M46.1775 21.228C46.9841 22.1696 47.23 23.3016 47.23 23.9417V27.8792" stroke="#F5F5F5" stroke-linecap="round" stroke-linejoin="round"/>
<path d="M35.23 14.4419C35.23 15.3273 34.6917 16.19 33.6953 16.8543C32.7024 17.5162 31.3019 17.9419 29.73 17.9419C28.1581 17.9419 26.7576 17.5162 25.7647 16.8543C24.7683 16.19 24.23 15.3273 24.23 14.4419C24.23 13.5565 24.7683 12.6938 25.7647 12.0295C26.7576 11.3676 28.1581 10.9419 29.73 10.9419C31.3019 10.9419 32.7024 11.3676 33.6953 12.0295C34.6917 12.6938 35.23 13.5565 35.23 14.4419Z" stroke="#F5F5F5"/>
<path d="M52.23 36.4419C52.23 38.4397 50.8262 39.9419 49.23 39.9419C47.6338 39.9419 46.23 38.4397 46.23 36.4419C46.23 34.4441 47.6338 32.9419 49.23 32.9419C50.8262 32.9419 52.23 34.4441 52.23 36.4419Z" stroke="#F5F5F5"/>
</svg>
