<svg width="60" height="61" viewBox="0 0 60 61" fill="none" xmlns="http://www.w3.org/2000/svg">
<path d="M29.5 60.5H7C6.44772 60.5 6 60.0523 6 59.5V6C6 4.34315 7.34315 3 9 3H26.5C28.1569 3 29.5 4.34315 29.5 6V17.5M29.5 60.5V17.5M29.5 60.5H51.5C52.0523 60.5 52.5 60.0523 52.5 59.5V20.5C52.5 18.8431 51.1569 17.5 49.5 17.5H29.5M31.5 15.5H51.5C53.1569 15.5 54.5 16.8431 54.5 18.5V58.5M8 1H28.5C30.1569 1 31.5 2.34315 31.5 4V10.5" stroke="#2C2C2C" stroke-linecap="round" stroke-linejoin="round"/>
<path d="M37 57.5V48.5C37 47.6716 37.6716 47 38.5 47H44C44.8284 47 45.5 47.6716 45.5 48.5V60.5M44 55.5V55C44 54.7239 43.7761 54.5 43.5 54.5H43M20 25.25V23.5C20 22.9477 19.5523 22.5 19 22.5H16.5C15.9477 22.5 15.5 22.9477 15.5 23.5V27C15.5 27.5523 15.9477 28 16.5 28H19C19.5523 28 20 27.5523 20 27V25.25ZM44 40.5H47.5C48.0523 40.5 48.5 40.0523 48.5 39.5V36C48.5 35.4477 48.0523 35 47.5 35H44C43.4477 35 43 35.4477 43 36V39.5C43 40.0523 43.4477 40.5 44 40.5ZM35 40.5H38.5C39.0523 40.5 39.5 40.0523 39.5 39.5V36C39.5 35.4477 39.0523 35 38.5 35H35C34.4477 35 34 35.4477 34 36V39.5C34 40.0523 34.4477 40.5 35 40.5ZM44 31H47.5C48.0523 31 48.5 30.5523 48.5 30V26.5C48.5 25.9477 48.0523 25.5 47.5 25.5H44C43.4477 25.5 43 25.9477 43 26.5V30C43 30.5523 43.4477 31 44 31ZM35 31H38.5C39.0523 31 39.5 30.5523 39.5 30V26.5C39.5 25.9477 39.0523 25.5 38.5 25.5H35C34.4477 25.5 34 25.9477 34 26.5V30C34 30.5523 34.4477 31 35 31ZM23.5 52.5H26C26.5523 52.5 27 52.0523 27 51.5V48C27 47.4477 26.5523 47 26 47H23.5C22.9477 47 22.5 47.4477 22.5 48V51.5C22.5 52.0523 22.9477 52.5 23.5 52.5ZM16.5 52.5H19C19.5523 52.5 20 52.0523 20 51.5V48C20 47.4477 19.5523 47 19 47H16.5C15.9477 47 15.5 47.4477 15.5 48V51.5C15.5 52.0523 15.9477 52.5 16.5 52.5ZM10 52.5H12.5C13.0523 52.5 13.5 52.0523 13.5 51.5V48C13.5 47.4477 13.0523 47 12.5 47H10C9.44772 47 9 47.4477 9 48V51.5C9 52.0523 9.44772 52.5 10 52.5ZM23.5 40.5H26C26.5523 40.5 27 40.0523 27 39.5V36C27 35.4477 26.5523 35 26 35H23.5C22.9477 35 22.5 35.4477 22.5 36V39.5C22.5 40.0523 22.9477 40.5 23.5 40.5ZM16.5 40.5H19C19.5523 40.5 20 40.0523 20 39.5V36C20 35.4477 19.5523 35 19 35H16.5C15.9477 35 15.5 35.4477 15.5 36V39.5C15.5 40.0523 15.9477 40.5 16.5 40.5ZM10 40.5H12.5C13.0523 40.5 13.5 40.0523 13.5 39.5V36C13.5 35.4477 13.0523 35 12.5 35H10C9.44772 35 9 35.4477 9 36V39.5C9 40.0523 9.44772 40.5 10 40.5ZM23.5 28H26C26.5523 28 27 27.5523 27 27V23.5C27 22.9477 26.5523 22.5 26 22.5H23.5C22.9477 22.5 22.5 22.9477 22.5 23.5V27C22.5 27.5523 22.9477 28 23.5 28ZM10 28H12.5C13.0523 28 13.5 27.5523 13.5 27V23.5C13.5 22.9477 13.0523 22.5 12.5 22.5H10C9.44772 22.5 9 22.9477 9 23.5V27C9 27.5523 9.44772 28 10 28ZM23.5 15.5H26C26.5523 15.5 27 15.0523 27 14.5V11C27 10.4477 26.5523 10 26 10H23.5C22.9477 10 22.5 10.4477 22.5 11V14.5C22.5 15.0523 22.9477 15.5 23.5 15.5ZM16.5 15.5H19C19.5523 15.5 20 15.0523 20 14.5V11C20 10.4477 19.5523 10 19 10H16.5C15.9477 10 15.5 10.4477 15.5 11V14.5C15.5 15.0523 15.9477 15.5 16.5 15.5ZM10 15.5H12.5C13.0523 15.5 13.5 15.0523 13.5 14.5V11C13.5 10.4477 13.0523 10 12.5 10H10C9.44772 10 9 10.4477 9 11V14.5C9 15.0523 9.44772 15.5 10 15.5Z" stroke="#2C2C2C" stroke-linecap="round" stroke-linejoin="round"/>
</svg>
