<svg width="60" height="62" viewBox="0 0 60 62" fill="none" xmlns="http://www.w3.org/2000/svg">
<path d="M19 53V15.1214C19 12.728 20.6962 10.6702 23.0457 10.2133L55 4M55 4V4C55 2.43537 53.5866 1.25047 52.046 1.52349L17.9765 7.56112C16.5439 7.815 15.5 9.06019 15.5 10.5151V15.3329M55 4V48.2213C55 49.5682 54.1023 50.75 52.8048 51.1113L19.3048 60.4404C17.3928 60.9729 15.5 59.5352 15.5 57.5504V47.3432M34 51C32.0307 49.7881 28.6018 46.8137 29.195 43.8791C29.2991 43.3643 29.8804 43.1512 30.3299 43.423C32.276 44.6001 34.3999 47.2412 31.9984 51.2424C31.7343 51.6823 31.1611 51.8063 30.7155 51.5517L29.0591 50.6052C28.5112 50.2921 27.8138 50.5585 27.6143 51.1572L27.4387 51.6838C27.2229 52.3313 26.4361 52.5771 25.8901 52.1675L25 51.5M17 17C14 12.5 9 15 8 16.5M17 17C16.6667 18.5 15.0361 21.6569 10.2361 20.4569M17 17C17 19.3431 17 23.5 17 23.5M17 42.5C16.6667 44.6667 15.3 49.4 12.5 51C11.5 50.5 9.2 48.1 8 42.5M17 42.5C13.4 45.3 9.5 43.6667 8 42.5M17 42.5V23.5M8 42.5V30.5M8 30.5C9.85156 28.1856 12.3888 22.9571 8.94661 17.7503C8.67065 17.3329 8.35626 16.9156 8 16.5M8 30.5C5.72532 27.3154 4.27851 22.0612 7.0492 17.7503C7.32365 17.3233 7.63949 16.9056 8 16.5M17 23.5C16.5 24.5 14.3981 26.3 10.3981 25.5M23 20C23.1663 20.4988 23.5723 20.7495 23.9201 20.8751C24.2919 21.0095 24.696 20.9616 25.084 20.8855L49.9848 16.003C49.9949 16.001 50.0046 15.9991 50.0147 15.9968C50.1697 15.9616 51.5 15.6265 51.5 14.5C51.5 13.9803 51.2168 13.629 50.8966 13.3979C50.368 13.0166 49.6707 13.0633 49.0307 13.1864L24.3239 17.9377C24.1082 17.9792 23.8927 18.0306 23.7027 18.1408C23.2937 18.378 22.6462 18.9387 23 20ZM22.5 27.5C22.6663 27.9988 23.0723 28.2495 23.4201 28.3751C23.7919 28.5095 24.196 28.4616 24.584 28.3855L49.4848 23.503C49.4949 23.501 49.5046 23.4991 49.5147 23.4968C49.6697 23.4616 51 23.1265 51 22C51 21.4803 50.7168 21.129 50.3966 20.8979C49.868 20.5166 49.1707 20.5633 48.5307 20.6864L23.8239 25.4377C23.6082 25.4792 23.3927 25.5306 23.2027 25.6408C22.7937 25.878 22.1462 26.4387 22.5 27.5ZM22.5 35C22.6663 35.4988 23.0723 35.7495 23.4201 35.8751C23.7919 36.0095 24.196 35.9616 24.584 35.8855L49.4848 31.003C49.4949 31.001 49.5046 30.9991 49.5147 30.9968C49.6697 30.9616 51 30.6265 51 29.5C51 28.9803 50.7168 28.629 50.3966 28.3979C49.868 28.0166 49.1707 28.0633 48.5307 28.1864L23.8239 32.9377C23.6082 32.9792 23.3927 33.0306 23.2027 33.1408C22.7937 33.378 22.1462 33.9387 22.5 35ZM38.5 39.5C38.661 39.9831 39.047 40.2335 39.3871 40.3629C39.7784 40.5118 40.2072 40.4564 40.6168 40.3701L49.4812 38.504C49.4937 38.5013 49.506 38.4988 49.5184 38.4959C49.6898 38.4564 51 38.118 51 37C51 36.4887 50.7259 36.1404 50.4121 35.9092C49.8773 35.5153 49.1645 35.5671 48.5132 35.6974L39.8052 37.439C39.6019 37.4796 39.3987 37.5293 39.2185 37.6317C38.8107 37.8635 38.1416 38.4249 38.5 39.5Z" stroke="#2C2C2C" stroke-linecap="round" stroke-linejoin="round"/>
</svg>
