<svg width="60" height="60" viewBox="0 0 60 60" fill="none" xmlns="http://www.w3.org/2000/svg">
<path d="M21.1772 11.2058C11.4475 16.0707 9.16634 25.6471 9.27334 32.2058M15.674 28.2058C15.3406 23.5391 16.974 12.7058 26.174 6.70581C29.5073 5.70581 37.274 4.93175 41.674 10.5318M27.174 30.7058C26.8406 26.0391 28.474 15.2058 37.674 9.20581C40.3655 8.75722 51.1063 14.748 52.5645 29.7058M9.27334 32.2058C9.2983 33.7362 9.45329 35.1022 9.674 36.2058C20.474 51.0058 42.8407 41.7058 52.674 35.2058C52.7768 33.2522 52.7316 31.4201 52.5645 29.7058M9.27334 32.2058C7.74021 33.3725 4.97399 36.6058 4.17399 40.2058C2.50732 47.7058 12.5 59.5 40.5 51.5C57.5 46.6428 57.955 31.2058 52.5645 29.7058M6.99997 40C8.8333 48.3333 26.174 57 50.174 41.7058" stroke="#2C2C2C" stroke-linecap="round" stroke-linejoin="round"/>
</svg>
