<svg width="61" height="61" viewBox="0 0 61 61" fill="none" xmlns="http://www.w3.org/2000/svg">
<path d="M46.2643 55.6618C45.2643 51.9951 45.4643 44.4618 54.2643 43.6618M10.7388 19.6618C9.50798 19.1268 8.34462 18.6248 7.26431 18.1618C-0.735694 19.3618 0.59764 24.3284 2.26431 26.6618C21.8643 35.0618 40.7643 52.4951 47.7643 60.1618C62.9643 62.5618 61.431 50.1618 58.7643 43.6618C56.012 40.9095 44.4702 35.0666 32.2643 29.3569M10.7388 19.6618C15.3073 21.6474 20.8052 24.086 26.436 26.6618M10.7388 19.6618C13.253 17.9951 17.2338 13.4812 16.3957 7.16177M52.2643 20.6618C38.6643 -2.13823 21.931 -0.504894 15.2643 3.16177C15.8677 4.56177 16.2281 5.89788 16.3957 7.16177M52.2643 20.6618C48.436 20.2919 39.0763 21.513 32.2643 29.3569M52.2643 20.6618C49.458 19.3944 46.7754 18.7861 44.2643 18.6536M32.2643 29.3569C30.3274 28.4509 28.3739 27.5482 26.436 26.6618M26.436 26.6618C29.0996 23.3091 35.6797 18.2006 44.2643 18.6536M16.3957 7.16177C21.3519 5.32297 33.8643 5.04701 44.2643 18.6536" stroke="#F5F5F5" stroke-linecap="round" stroke-linejoin="round"/>
</svg>
