<svg width="60" height="60" viewBox="0 0 60 60" fill="none" xmlns="http://www.w3.org/2000/svg">
<path d="M33.3736 55V33.5M33.3736 55L56.3736 49.5V27.5M33.3736 55L6.37356 53.5V32L11.3736 23.5909M33.3736 33.5L12.8736 32.5M33.3736 33.5L31.0361 28M33.3736 33.5L35.8736 32.9021M56.3736 27.5L48.2986 8.5C45.8736 3.5 42.5 4.5 40.3736 7.50001L38.6835 10.4623M56.3736 27.5L46.1542 27M25.2986 14.4999C22.8736 8.5 18.8736 10.9999 17.3736 13.5L14.1765 18.8768M25.2986 14.4999L41.8736 9.49995C42.8736 9.5 44.9736 11.5999 43.3736 13.9999L35.2923 16.4999M25.2986 14.4999L29.3361 24M20.3736 13.5C21.2069 13.8333 21.8736 14 23.3736 17L28.3736 29M11.3736 23.5909L8.37356 19.9999C5.87356 19.1666 1.8736 17 5.37356 12.5L7.17732 15.6565C7.30341 15.8771 7.50828 16.0467 7.75627 16.1022C9.0018 16.381 9.7537 15.9759 10.2264 14.8872C10.332 14.6439 10.3069 14.3667 10.1883 14.1295L8.37356 10.5C10.5402 10.5 14.8736 11.5 12.8736 16.9999L14.1765 18.8768M11.3736 23.5909L14.1765 18.8768M27.2111 18.9999L35.2923 16.4999M50.8736 29.3152L45.8736 30.5108M43.3736 7.49996C44.2069 7.8333 44.8736 7.99997 46.3736 11L51.3736 23M29.3361 24L30.3736 23C30.0823 21.5437 30.4527 19.0441 33.7528 19.2367M29.3361 24L31.0361 28M31.0361 28L32.8736 26C34.6227 26.5247 35.7344 26.1763 36.4178 25.4646M33.7528 19.2367C34.2296 19.2645 34.7676 19.3485 35.3736 19.5L32.8736 21.5C32.5402 22.3333 32.4736 24 34.8736 24L36.6277 22.5967M33.7528 19.2367L35.2923 16.4999M35.8736 32.9021L36.4178 25.4646M35.8736 32.9021L37.5552 32.5M45.8736 30.5108L37.5552 32.5M45.8736 30.5108L46.099 27.6902M36.4178 25.4646C37.2973 24.5488 37.4674 23.0317 37.3736 22L36.6277 22.5967M36.6277 22.5967L36.8736 19.2367L38.6835 17.7609L46.8736 18L46.1542 27M37.5552 32.5L38.3736 22M46.1542 27L46.099 27.6902M46.099 27.6902H43.3736M46.5658 21.8511H43.3736M46.434 23.5H44.2366M46.338 24.7009H44.1406M46.2341 26H44.0367" stroke="#2C2C2C" stroke-linecap="round" stroke-linejoin="round"/>
</svg>
