<svg width="60" height="60" viewBox="0 0 60 60" fill="none" xmlns="http://www.w3.org/2000/svg">
<path d="M17.2237 38.9811L16.7279 39.0458C16.7292 39.0559 16.7308 39.066 16.7327 39.0759L17.2237 38.9811ZM26.3796 16.9483L26.5628 17.4136L26.3796 16.9483ZM24.2081 28.7583C24.0933 29.0095 24.2038 29.3061 24.455 29.4209C24.7061 29.5358 25.0028 29.4252 25.1176 29.1741L24.2081 28.7583ZM36.68 21.455L37.0013 21.0719C36.8622 20.9553 36.6708 20.9232 36.5013 20.9881C36.3317 21.053 36.2107 21.2046 36.185 21.3843L36.68 21.455ZM26.867 36.82C26.8055 36.5508 26.5374 36.3825 26.2682 36.444C25.999 36.5055 25.8306 36.7736 25.8921 37.0428L26.867 36.82ZM27.0433 31.1065C27.1192 31.3721 27.3959 31.5258 27.6614 31.4499C27.9269 31.3741 28.0807 31.0974 28.0048 30.8318L27.0433 31.1065ZM20.6571 31.4699L21.1167 31.6669L20.6571 31.4699ZM28.582 34.0926C28.6476 33.8244 28.4835 33.5537 28.2152 33.488C27.947 33.4223 27.6763 33.5865 27.6107 33.8547L28.582 34.0926ZM22.9794 30.4703C22.7039 30.4519 22.4656 30.6603 22.4472 30.9359C22.4288 31.2114 22.6373 31.4497 22.9128 31.4681L22.9794 30.4703ZM24.3565 35.8964C24.2331 36.1434 24.3333 36.4437 24.5803 36.5671C24.8274 36.6905 25.1277 36.5903 25.2511 36.3433L24.3565 35.8964ZM32.406 34.5781C32.1867 34.4103 31.8729 34.4519 31.705 34.6712C31.5372 34.8904 31.5788 35.2043 31.7981 35.3721L32.406 34.5781ZM39.9285 35.2913C40.1032 35.0774 40.0713 34.7624 39.8574 34.5878C39.6435 34.4132 39.3285 34.445 39.1539 34.659L39.9285 35.2913ZM38.969 19.2517L39.3028 18.8795L38.969 19.2517ZM24.8038 43.7247L24.8718 43.2293L24.8038 43.7247ZM31.4575 12C31.4575 11.7239 31.2337 11.5 30.9575 11.5C30.6814 11.5 30.4575 11.7239 30.4575 12H31.4575ZM46.3127 20.8902L46.7028 20.5775L46.0775 19.7972L45.6873 20.1098L46.3127 20.8902ZM44.0871 38L43.6277 37.8027L44.0871 38ZM47.3594 39.4798C47.6244 39.5575 47.9022 39.4056 47.9798 39.1406C48.0575 38.8756 47.9056 38.5978 47.6406 38.5202L47.3594 39.4798ZM29.5 48.0115C29.5 48.2876 29.7239 48.5115 30 48.5115C30.2761 48.5115 30.5 48.2876 30.5 48.0115H29.5ZM17.1164 38L17.6144 37.9555L17.1164 38ZM12.3012 39.5412C12.0478 39.651 11.9314 39.9454 12.0412 40.1988C12.151 40.4522 12.4454 40.5686 12.6988 40.4588L12.3012 39.5412ZM15.2898 18.5925C15.0647 18.4325 14.7526 18.4852 14.5925 18.7102C14.4325 18.9353 14.4852 19.2474 14.7102 19.4075L15.2898 18.5925ZM37.8083 39.9229L38.0946 40.3328L37.8083 39.9229ZM37.8537 43.2811L37.7764 42.7871L37.8537 43.2811ZM25.1176 29.1741C25.3995 28.5574 26.9923 26.8496 31.0059 26.4594L30.9091 25.4641C26.6825 25.875 24.6892 27.7059 24.2081 28.7583L25.1176 29.1741ZM31.0059 26.4594C35.3824 26.0339 36.9556 23.0615 37.175 21.5257L36.185 21.3843C36.0229 22.5192 34.773 25.0884 30.9091 25.4641L31.0059 26.4594ZM36.3587 21.8382C38.4814 23.6182 40.9472 26.569 41.7856 29.8013C42.2018 31.4061 42.2146 33.0685 41.5996 34.6995C40.9845 36.3311 39.7248 37.9747 37.522 39.513L38.0946 40.3328C40.4269 38.7041 41.835 36.9098 42.5353 35.0523C43.2359 33.1943 43.2117 31.3166 42.7535 29.5502C41.843 26.0399 39.2095 22.9237 37.0013 21.0719L36.3587 21.8382ZM34.1226 40.5759C32.647 40.5518 30.9687 40.324 29.5866 39.7312C28.2108 39.1411 27.1867 38.2187 26.867 36.82L25.8921 37.0428C26.3073 38.8592 27.6399 39.9843 29.1924 40.6503C30.7387 41.3135 32.5603 41.5505 34.1062 41.5758L34.1226 40.5759ZM28.0048 30.8318C27.8195 30.183 27.3296 29.6264 26.7297 29.2239C26.1236 28.8172 25.3633 28.5381 24.5634 28.4681C23.7606 28.3979 22.9046 28.5375 22.1244 28.9867C21.3409 29.4377 20.6645 30.1834 20.1975 31.273L21.1167 31.6669C21.5081 30.7535 22.0477 30.1847 22.6233 29.8533C23.2022 29.5201 23.8483 29.4094 24.4762 29.4643C25.1069 29.5195 25.7057 29.7411 26.1725 30.0543C26.6455 30.3716 26.9426 30.7539 27.0433 31.1065L28.0048 30.8318ZM20.1975 31.273C18.9605 34.1596 20.5631 36.8086 22.6958 37.7547C23.7709 38.2317 25.0187 38.2956 26.1292 37.7128C27.242 37.1288 28.1291 35.942 28.582 34.0926L27.6107 33.8547C27.2052 35.5105 26.4551 36.4124 25.6644 36.8274C24.8714 37.2436 23.9495 37.2169 23.1013 36.8406C21.3874 36.0803 20.1288 33.9722 21.1167 31.6669L20.1975 31.273ZM22.9128 31.4681C23.543 31.5102 24.3148 31.7877 24.7245 32.3993C25.1116 32.9771 25.2883 34.031 24.3565 35.8964L25.2511 36.3433C26.2632 34.3172 26.2257 32.8435 25.5553 31.8427C24.9074 30.8757 23.7785 30.5237 22.9794 30.4703L22.9128 31.4681ZM31.7981 35.3721C32.6084 35.9926 33.9736 36.7394 35.4624 36.9595C36.9753 37.1832 38.6471 36.8612 39.9285 35.2913L39.1539 34.659C38.1463 35.8933 36.8615 36.1555 35.6086 35.9702C34.3315 35.7814 33.1216 35.1261 32.406 34.5781L31.7981 35.3721ZM38.6351 19.624C40.1161 20.9523 41.2322 22.4643 41.9795 23.6495L42.8254 23.1162C42.0467 21.8811 40.8738 20.2886 39.3028 18.8795L38.6351 19.624ZM24.8718 43.2293C22.8971 42.9583 21.2949 42.7847 20.0674 42.2084C19.4711 41.9284 18.9795 41.5586 18.5914 41.0426C18.2018 40.5245 17.8976 39.8338 17.7146 38.8863L16.7327 39.0759C16.9379 40.1378 17.292 40.9785 17.7922 41.6437C18.2941 42.3109 18.924 42.7763 19.6424 43.1136C21.0443 43.7717 22.844 43.9604 24.7358 44.22L24.8718 43.2293ZM37.7764 42.7871C35.4954 43.1442 32.6583 43.4404 29.9888 43.5001L30.0112 44.4999C32.7325 44.4389 35.6144 44.1377 37.931 43.7751L37.7764 42.7871ZM29.9888 43.5001C28.1414 43.5415 26.5643 43.4616 24.8718 43.2293L24.7358 44.22C26.4867 44.4603 28.1173 44.5423 30.0112 44.4999L29.9888 43.5001ZM26.5628 17.4136C28.1544 16.7868 29.6202 16.5145 30.9627 16.5006L30.9523 15.5006C29.4791 15.5159 27.8929 15.8151 26.1964 16.4831L26.5628 17.4136ZM30.9627 16.5006C34.1318 16.4677 36.6866 17.8763 38.6351 19.624L39.3028 18.8795C37.2331 17.0232 34.4468 15.4643 30.9523 15.5006L30.9627 16.5006ZM31.4575 16.0006V12H30.4575V16.0006H31.4575ZM42.7151 23.7731L46.3127 20.8902L45.6873 20.1098L42.0898 22.9927L42.7151 23.7731ZM42.4024 23.3829C41.9642 23.6235 41.9641 23.6234 41.9641 23.6234C41.9641 23.6234 41.9641 23.6233 41.9641 23.6234C41.9641 23.6235 41.9642 23.6237 41.9644 23.624C41.9648 23.6246 41.9654 23.6257 41.9662 23.6274C41.968 23.6306 41.9708 23.6358 41.9746 23.6428C41.9822 23.657 41.9938 23.6788 42.009 23.7078C42.0395 23.766 42.0844 23.8533 42.1411 23.9675C42.2545 24.1958 42.4145 24.5313 42.5984 24.9547C42.9666 25.8023 43.429 26.9985 43.8057 28.3917C44.5634 31.194 44.9535 34.7154 43.6277 37.8027L44.5465 38.1973C46.0037 34.8041 45.5514 31.0169 44.771 28.1307C44.3787 26.6798 43.8981 25.4368 43.5156 24.5563C43.3242 24.1156 43.1569 23.7647 43.0368 23.5228C42.9768 23.4019 42.9285 23.3081 42.8948 23.2438C42.878 23.2117 42.8649 23.187 42.8557 23.17C42.8512 23.1615 42.8476 23.1549 42.8451 23.1502C42.8438 23.1479 42.8428 23.1461 42.8421 23.1447C42.8417 23.1441 42.8414 23.1435 42.8412 23.1431C42.8411 23.1429 42.841 23.1427 42.8409 23.1426C42.8408 23.1424 42.8407 23.1422 42.4024 23.3829ZM43.6277 37.8027C43.0314 39.1911 42.0842 40.5023 40.6483 41.6313L41.2665 42.4174C42.8366 41.1828 43.8858 39.7359 44.5465 38.1973L43.6277 37.8027ZM43.9465 38.4798L47.3594 39.4798L47.6406 38.5202L44.2277 37.5202L43.9465 38.4798ZM29.5 44V48.0115H30.5V44H29.5ZM17.7195 38.9163C17.68 38.6144 17.6447 38.2934 17.6144 37.9555L16.6184 38.0445C16.6498 38.3953 16.6866 38.7299 16.7279 39.0458L17.7195 38.9163ZM16.9177 37.5412L12.3012 39.5412L12.6988 40.4588L17.3152 38.4588L16.9177 37.5412ZM17.6144 37.9555C17.251 33.8918 17.6409 27.5471 20.4308 22.8094L19.5692 22.302C16.6271 27.298 16.2465 33.8869 16.6184 38.0445L17.6144 37.9555ZM20.4308 22.8094C21.8188 20.4525 23.7935 18.504 26.5628 17.4136L26.1964 16.4831C23.1827 17.6698 21.0485 19.7898 19.5692 22.302L20.4308 22.8094ZM20.2898 22.1482L15.2898 18.5925L14.7102 19.4075L19.7102 22.9632L20.2898 22.1482ZM37.522 39.513C36.5219 40.2114 35.33 40.5957 34.1226 40.5759L34.1062 41.5758C35.5361 41.5992 36.9322 41.1446 38.0946 40.3328L37.522 39.513ZM37.931 43.7751C39.1078 43.5908 40.2882 43.1866 41.2665 42.4174L40.6483 41.6313C39.8436 42.2641 38.8406 42.6205 37.7764 42.7871L37.931 43.7751Z" fill="#2C2C2C"/>
<circle cx="31" cy="6" r="5.5" stroke="#2C2C2C"/>
<circle cx="51" cy="17" r="5.5" stroke="#2C2C2C"/>
<circle cx="53" cy="41" r="5.5" stroke="#2C2C2C"/>
<circle cx="30" cy="54" r="5.5" stroke="#2C2C2C"/>
<circle cx="7" cy="42" r="5.5" stroke="#2C2C2C"/>
<circle cx="10" cy="16" r="5.5" stroke="#2C2C2C"/>
</svg>
