<svg width="61" height="61" viewBox="0 0 61 61" fill="none" xmlns="http://www.w3.org/2000/svg">
<path d="M6.68789 29.0833V44.5C6.68789 45.5 6.88789 47.3 9.68789 48.5L14.6879 51M55.1879 28V40.5C55.1879 42.1 54.5212 43.1667 54.1879 43.5L36.6879 58.5C34 61 33.5 60.5 31.6879 59.5L23.6879 55.5M14.6879 44.5C14.3638 43.3655 13.074 41.128 9.95781 38.7067C9.83747 38.6132 9.85814 38.423 9.99356 38.3531C11.4213 37.6162 13.3956 35.8872 14.5362 32.3359C14.5923 32.1612 14.8361 32.1381 14.9178 32.3023C15.7895 34.0545 17.4912 37.225 19.3708 38.3338C19.5058 38.4134 19.5208 38.614 19.3954 38.7079C19.3296 38.7572 19.2603 38.8106 19.1879 38.8681M14.6879 44.5V51M14.6879 44.5C16 42 18.0274 39.7891 19.1879 38.8681M14.6879 51L23.6879 55.5M19.1879 38.8681L23.116 40.7291C23.4652 40.8945 23.6879 41.2464 23.6879 41.6328V55.5M34.2285 43.5C33.3696 43.3045 32.6313 42.8695 32.1879 42.5L19.7463 30.0584C19.3875 29.6996 18.9058 29.4906 18.3987 29.4737L5.48506 29.0432C4.62389 29.0145 3.74085 28.9185 3.01625 28.4522C1.72175 27.6192 0.482293 25.9664 1.22203 23.2693M34.2285 43.5C35.3066 43.7453 36.5747 43.6132 37.6879 42.5L39.4796 41M34.2285 43.5V55.5M39.4796 41V49.5C39.549 50.3333 40.0879 51.7 41.6879 50.5L50.0166 43.0967C50.4436 42.7171 50.6879 42.1731 50.6879 41.6019V31.6163M39.4796 41L50.6879 31.6163M50.6879 31.6163L59.1879 24.5C59.995 23.8243 60.1983 23.101 60.203 22.6917C60.2044 22.5636 60.1879 22.4355 60.1879 22.3074V18M43.6879 1H28.5467C27.3476 1 26.1884 1.43096 25.2805 2.21429L19.4136 7.27618M43.6879 1L60.1879 18M43.6879 1L18.6879 23.3202M60.1879 18L37.6879 37C36.0879 39 33.3546 37.8333 32.1879 37L20.1879 24.5C19.7996 23.9176 19.2387 23.5472 18.6879 23.3202M1.22203 23.2693V23.2693C1.45772 22.41 2.042 21.7025 2.72431 21.1294L13.8184 11.8104M1.22203 23.2693L17.1879 23C17.531 23 18.1037 23.0795 18.6879 23.3202M40.6879 27.5L46.1879 23V16L39.1879 12.5L33.6879 16.5V20.5L40.6879 27.5ZM40.6879 27.5V20.5M35.6879 17.5L40.6879 20.5M40.6879 20.5L44.1879 17.5M19.4136 7.27618C18.5794 6.06644 17.8817 4.73486 17.4184 3.80349C17.3367 3.63928 17.0923 3.66127 17.0362 3.83589C15.8956 7.3872 13.9213 9.11618 12.4936 9.85315C12.3581 9.92305 12.3375 10.1132 12.4578 10.2067C15.0638 12.2315 16.3924 14.1279 16.9472 15.3581C17.0295 15.5404 17.3434 15.5403 17.4197 15.3554C18.0139 13.9158 19.4219 11.6045 21.8309 10.1978C21.9744 10.114 21.9703 9.89465 21.8282 9.80836C20.9633 9.28306 20.1371 8.32545 19.4136 7.27618Z" stroke="#2C2C2C" stroke-linecap="round" stroke-linejoin="round"/>
</svg>
