<svg width="60" height="60" viewBox="0 0 60 60" fill="none" xmlns="http://www.w3.org/2000/svg">
<path d="M17.15 22.35L15.9923 21.5782C15.1583 21.0222 14.0277 21.2891 13.5304 22.1594C13.0478 23.0039 13.3559 24.0801 14.2123 24.5412L16.9789 26.0309C17.8289 26.4886 18.8886 26.1943 19.3808 25.3637L24.9087 16.0353C25.3524 15.2867 25.1326 14.3217 24.4086 13.839C23.6384 13.3256 22.5962 13.5524 22.109 14.3394L17.15 22.35Z" stroke="#2C2C2C" stroke-linecap="round" stroke-linejoin="round"/>
<path d="M17.15 37.65L16.4289 37.2173C15.5898 36.7139 14.5009 36.9985 14.0154 37.848C13.5183 38.718 13.8541 39.827 14.7503 40.2751L17.001 41.4005C17.8456 41.8228 18.873 41.5206 19.3545 40.7081L24.7679 31.5729C25.2803 30.7083 24.9852 29.5915 24.1126 29.0929C23.2496 28.5998 22.1503 28.8996 21.6571 29.7626L17.15 37.65Z" stroke="#2C2C2C" stroke-linecap="round" stroke-linejoin="round"/>
<path d="M8.6 48L8.18753 17.4769C8.16542 15.8408 9.24949 14.3955 10.8264 13.9588L37.4 6.60001M37.4 6.60001V6.60001C37.4 4.79043 35.6749 3.4792 33.9313 3.96352L7.63648 11.2677C6.07833 11.7005 5 13.1192 5 14.7363V49.8208C5 52.259 7.37286 53.992 9.69547 53.2501L24.35 48.5688M37.4 6.60001V28.2M19.85 17.8909L12.4132 19.9191C12.0216 20.0259 11.75 20.3816 11.75 20.7874V28.8217C11.75 29.4151 12.3143 29.8461 12.8868 29.69L20.9868 27.4809C21.3784 27.3741 21.65 27.0184 21.65 26.6126V21.6066M19.4 33.6L12.3961 35.66C12.013 35.7726 11.75 36.1242 11.75 36.5234V44.5717C11.75 45.1651 12.3143 45.5961 12.8868 45.44L20.9868 43.2309C21.3784 43.1241 21.65 42.7684 21.65 42.3626V36.8997M24.35 23.7L34.4449 20.6277C34.6133 20.5764 34.7902 20.559 34.9653 20.5765V20.5765C36.2641 20.7064 36.6208 22.4329 35.4798 23.0668L35.2873 23.1737C35.1961 23.2244 35.0994 23.2648 34.9992 23.294L24.702 26.2973C24.4718 26.3645 24.2276 26.3666 23.9963 26.3035V26.3035C22.7197 25.9554 22.7197 24.1446 23.9963 23.7965L24.35 23.7ZM25.2604 20.7802V20.7802C25.5431 20.9216 25.8686 20.9518 26.1726 20.865L34.9399 18.36C35.0791 18.3203 35.2113 18.2591 35.3318 18.1788L35.4493 18.1005C36.3956 17.4696 36.1693 16.0198 35.0757 15.7074V15.7074C34.8304 15.6373 34.5701 15.639 34.3257 15.7123L25.8196 18.2641C25.74 18.288 25.6626 18.3187 25.5883 18.3559L25.2604 18.5198C24.3291 18.9855 24.3291 20.3145 25.2604 20.7802Z" stroke="#2C2C2C" stroke-linecap="round" stroke-linejoin="round"/>
<path d="M33.35 57.45L33.1264 57.8972C33.2525 57.9603 33.3993 57.9672 33.5308 57.9162L33.35 57.45ZM54.95 32.7L55.4498 32.6861C55.445 32.5127 55.3506 32.3542 55.2005 32.2673L54.95 32.7ZM33.35 40.35L33.1831 39.8787C32.9834 39.9494 32.85 40.1382 32.85 40.35H33.35ZM36.5 48.9L36.303 48.4404L36.5 48.9ZM53.15 42.6L53.3221 43.0694C53.3424 43.062 53.3622 43.0533 53.3813 43.0433L53.15 42.6ZM32.9 36.3H32.4C32.4 36.4672 32.4836 36.6233 32.6227 36.716L32.9 36.3ZM32.9 30.45L32.6948 29.994C32.5154 30.0748 32.4 30.2533 32.4 30.45H32.9ZM41.9 26.4L41.8949 25.9C41.8259 25.9007 41.7578 25.9157 41.6948 25.944L41.9 26.4ZM44.6 32.7L44.9536 33.0536C45.0473 32.9598 45.1 32.8326 45.1 32.7H44.6ZM41 32.7H40.5C40.5 32.8326 40.5527 32.9598 40.6465 33.0536L41 32.7ZM41.5 30.225C41.5 29.9489 41.2761 29.725 41 29.725C40.7239 29.725 40.5 29.9489 40.5 30.225H41.5ZM36.95 35.4L37.3972 35.6236C37.4319 35.5542 37.45 35.4776 37.45 35.4H36.95ZM36.95 32.25L36.7264 31.8028C36.557 31.8875 36.45 32.0606 36.45 32.25H36.95ZM42.5736 29.9972C42.8206 29.8737 42.9207 29.5734 42.7972 29.3264C42.6737 29.0794 42.3734 28.9793 42.1264 29.1028L42.5736 29.9972ZM38.7461 48.5335C39.0033 48.4329 39.1303 48.1429 39.0298 47.8857C38.9292 47.6286 38.6392 47.5016 38.382 47.6021L38.7461 48.5335ZM43.278 45.7321C43.0196 45.8294 42.889 46.1177 42.9863 46.3762C43.0835 46.6346 43.3719 46.7652 43.6304 46.6679L43.278 45.7321ZM47.4742 45.3187L47.9429 45.1445L47.5945 44.2071L47.1258 44.3813L47.4742 45.3187ZM52.3299 42.3684C52.0707 42.4637 51.9378 42.751 52.033 43.0102C52.1282 43.2694 52.4156 43.4023 52.6748 43.3071L52.3299 42.3684ZM53.6243 49.5886L53.4435 49.1224L53.6243 49.5886ZM55.3471 46.9962L54.8473 47.0101L55.3471 46.9962ZM25.8425 53.6963L26.0661 53.2491L25.8425 53.6963ZM26.119 35.2002L25.9466 34.7308L26.119 35.2002ZM23.85 37.7346V51.2813H24.85V37.7346H23.85ZM25.6189 54.1435L33.1264 57.8972L33.5736 57.0028L26.0661 53.2491L25.6189 54.1435ZM33.5308 57.9162L53.8051 50.0547L53.4435 49.1224L33.1692 56.9838L33.5308 57.9162ZM55.2005 32.2673L47.7461 27.9516L47.245 28.817L54.6995 33.1327L55.2005 32.2673ZM33.5169 40.8213L55.1169 33.1713L54.7831 32.2287L33.1831 39.8787L33.5169 40.8213ZM33.85 57.45V46.65H32.85V57.45H33.85ZM33.85 46.65V40.35H32.85V46.65H33.85ZM32.85 46.65C32.85 47.3044 33.0164 48.2787 33.6015 48.9567C33.906 49.3096 34.3231 49.5792 34.8652 49.6665C35.3985 49.7523 36.0082 49.6548 36.697 49.3596L36.303 48.4404C35.7318 48.6853 35.3177 48.7264 35.0242 48.6792C34.7394 48.6333 34.5265 48.498 34.3585 48.3033C33.9986 47.8863 33.85 47.1956 33.85 46.65H32.85ZM55.8469 46.9823L55.6373 39.4361L54.6377 39.4639L54.8473 47.0101L55.8469 46.9823ZM55.6373 39.4361L55.4498 32.6861L54.4502 32.7139L54.6377 39.4639L55.6373 39.4361ZM53.3813 43.0433C54.0706 42.6837 55.4011 41.5057 55.6341 39.5079L54.6409 39.3921C54.4539 40.9943 53.3794 41.9164 52.9187 42.1567L53.3813 43.0433ZM33.1052 30.906L42.1052 26.856L41.6948 25.944L32.6948 29.994L33.1052 30.906ZM45.0393 27.7172L44.4276 27.9419L44.7724 28.8806L45.3842 28.6558L45.0393 27.7172ZM41.9051 26.9C42.2988 26.896 42.8846 26.9822 43.3522 27.2317C43.7966 27.4688 44.1 27.8262 44.1 28.4112H45.1C45.1 27.3652 44.5034 26.7124 43.8228 26.3494C43.1655 25.9987 42.4013 25.8949 41.8949 25.9L41.9051 26.9ZM44.1 28.4112V32.7H45.1V28.4112H44.1ZM44.2465 32.3465C44.003 32.5899 43.5541 32.8869 43.0347 32.9715C42.5463 33.051 41.9583 32.9512 41.3536 32.3465L40.6465 33.0536C41.4817 33.8888 42.3938 34.089 43.1953 33.9585C43.9659 33.8331 44.597 33.4101 44.9536 33.0536L44.2465 32.3465ZM41.5 32.7V30.225H40.5V32.7H41.5ZM32.6227 36.716C33.1307 37.0548 33.9761 37.42 34.8771 37.3846C35.8245 37.3475 36.7758 36.8665 37.3972 35.6236L36.5028 35.1764C36.0442 36.0935 35.4205 36.3625 34.8379 36.3854C34.209 36.4101 33.5693 36.1453 33.1774 35.884L32.6227 36.716ZM37.45 35.4V32.25H36.45V35.4H37.45ZM37.1736 32.6972L42.5736 29.9972L42.1264 29.1028L36.7264 31.8028L37.1736 32.6972ZM32.7276 32.2399L25.9466 34.7308L26.2914 35.6695L33.0724 33.1785L32.7276 32.2399ZM33.4 36.3V32.7092H32.4V36.3H33.4ZM33.4 32.7092V30.45H32.4V32.7092H33.4ZM36.697 49.3596C37.1576 49.1622 37.8655 48.8778 38.7461 48.5335L38.382 47.6021C37.5 47.947 36.7794 48.2363 36.303 48.4404L36.697 49.3596ZM43.6304 46.6679C44.3099 46.4121 44.918 46.2057 45.5344 45.9973C46.1497 45.7892 46.774 45.579 47.4742 45.3187L47.1258 44.3813C46.4417 44.6356 45.8314 44.8412 45.2141 45.05C44.5978 45.2583 43.9752 45.4696 43.278 45.7321L43.6304 46.6679ZM52.6748 43.3071C52.9005 43.2241 53.1167 43.1448 53.3221 43.0694L52.9779 42.1306C52.7722 42.206 52.5558 42.2854 52.3299 42.3684L52.6748 43.3071ZM53.8051 50.0547C55.0669 49.5654 55.8845 48.3352 55.8469 46.9823L54.8473 47.0101C54.8732 47.9402 54.3111 48.786 53.4435 49.1224L53.8051 50.0547ZM23.85 51.2813C23.85 52.4934 24.5348 53.6014 25.6189 54.1435L26.0661 53.2491C25.3208 52.8764 24.85 52.1146 24.85 51.2813H23.85ZM47.7461 27.9516C46.9234 27.4753 45.9316 27.3894 45.0393 27.7172L45.3842 28.6558C45.9976 28.4305 46.6795 28.4895 47.245 28.817L47.7461 27.9516ZM24.85 37.7346C24.85 36.8121 25.4255 35.9876 26.2914 35.6695L25.9466 34.7308C24.6871 35.1935 23.85 36.3928 23.85 37.7346H24.85Z" fill="#2C2C2C"/>
<path d="M43.2 47.1C43.2 48.2676 42.915 49.3005 42.4805 50.0247C42.0399 50.759 41.501 51.1 41 51.1C40.4991 51.1 39.9601 50.759 39.5196 50.0247C39.085 49.3005 38.8 48.2676 38.8 47.1C38.8 45.9324 39.085 44.8996 39.5196 44.1753C39.9601 43.441 40.4991 43.1 41 43.1C41.501 43.1 42.0399 43.441 42.4805 44.1753C42.915 44.8996 43.2 45.9324 43.2 47.1Z" stroke="#2C2C2C"/>
<path d="M52.2 43.5C52.2 44.6676 51.915 45.7005 51.4805 46.4247C51.0399 47.159 50.501 47.5 50 47.5C49.4991 47.5 48.9601 47.159 48.5196 46.4247C48.085 45.7005 47.8 44.6676 47.8 43.5C47.8 42.3324 48.085 41.2996 48.5196 40.5753C48.9601 39.841 49.4991 39.5 50 39.5C50.501 39.5 51.0399 39.841 51.4805 40.5753C51.915 41.2996 52.2 42.3324 52.2 43.5Z" stroke="#2C2C2C"/>
</svg>
