<svg width="61" height="60" viewBox="0 0 61 60" fill="none" xmlns="http://www.w3.org/2000/svg">
<path d="M10 36.0952C3.36246 37.983 1 40.4749 1 44.0952C1 49.8942 12.1929 54.5952 26 54.5952C33.069 54.5952 39.9528 53.5762 44.5 51.5952M42 35.5952C44.2807 36.2109 44 36.0952 45.5 37.0952" stroke="#2C2C2C" stroke-linecap="round" stroke-linejoin="round"/>
<path d="M16 24.5952C7.60557 25.5338 5 27.7168 5 31.0952C5 35.2373 14.1782 38.5952 25.5 38.5952C36.8218 38.5952 46 35.2373 46 31.0952C46 28.3571 44.4893 26.4045 38.5 25.0952M12.5 29.0952C10 31.5952 15 34.5952 21 33.0952" stroke="#2C2C2C" stroke-linecap="round" stroke-linejoin="round"/>
<path d="M19.4999 17.0955C14.1398 17.2963 11.2394 17.9971 11.0264 20.0675C10.7443 22.8089 17.0335 25.7019 25.0736 26.5292C33.1138 27.3565 39.8603 25.8049 40.1424 23.0635C40.3603 20.9462 37.901 19.3721 32.4999 18.0955" stroke="#2C2C2C" stroke-linecap="round" stroke-linejoin="round"/>
<path d="M33.8418 16.2679C33.8088 16.5883 33.6201 16.9221 33.2137 17.2496C32.8052 17.5787 32.2072 17.8745 31.4415 18.1066C29.9124 18.5702 27.8124 18.7501 25.5115 18.5133C23.2106 18.2765 21.1912 17.6728 19.7885 16.9076C19.0861 16.5244 18.5608 16.113 18.228 15.7076C17.8968 15.3042 17.7799 14.939 17.8129 14.6186C17.8459 14.2982 18.0346 13.9645 18.4411 13.637C18.8495 13.3078 19.4475 13.012 20.2132 12.7799C21.7424 12.3163 23.8424 12.1365 26.1433 12.3732C28.4442 12.61 30.4635 13.2137 31.8662 13.979C32.5686 14.3621 33.0939 14.7736 33.4267 15.179C33.7579 15.5824 33.8748 15.9476 33.8418 16.2679Z" stroke="#2C2C2C"/>
<path d="M48 52.5952C40.1621 51.1701 37.0311 45.9373 36.2046 42.6904C36.0576 42.1128 36.525 41.605 37.1126 41.5053C37.9609 41.3613 38.5409 41.0952 40 41.0952C42 41.0952 42.1802 41.5952 43.5 41.5952M48 52.5952C51.3691 52.1139 58.2591 49.4088 59.8402 42.4286C59.9482 41.9518 59.6574 41.4882 59.1782 41.3914C58.4936 41.2531 57.4047 41.0952 56 41.0952M48 52.5952L43.5 55.0952M48 52.5952V47.5952M48 52.5952L53 55.5952M48 52.5952C45.3268 51.3801 41.7648 47.791 43.5 41.5952M48 52.5952C53.079 49.7245 53.7184 45.5026 52.6272 41.5952C51.991 39.3172 50.7666 37.146 49.4907 35.4119C48.7602 34.4191 47.3032 34.4718 46.5998 35.484C45.0265 37.7479 44.0075 39.7831 43.5 41.5952" stroke="#2C2C2C" stroke-linecap="round" stroke-linejoin="round"/>
</svg>
