<svg width="60" height="61" viewBox="0 0 60 61" fill="none" xmlns="http://www.w3.org/2000/svg">
<path d="M23 40.6994L24.8753 42.1996C25.2405 42.4918 25.7595 42.4918 26.1247 42.1996L28 40.6994M30.5 36.5L32.3753 38.0002C32.7405 38.2924 33.2595 38.2924 33.6247 38.0002L35.5 36.5M37.5 32.1994L39.3753 33.6996C39.7405 33.9918 40.2595 33.9918 40.6247 33.6996L42.5 32.1994M29 46.1994L30.8753 47.6996C31.2405 47.9918 31.7595 47.9918 32.1247 47.6996L34 46.1994M36.5 41.6994L38.3753 43.1996C38.7405 43.4918 39.2595 43.4918 39.6247 43.1996L41.5 41.6994M44 37.1994L45.8753 38.6996C46.2405 38.9918 46.7595 38.9918 47.1247 38.6996L49 37.1994M15.5 24.6994L32 14.6994M1.6568 22.7906L5.09639 25.0915C6.66663 26.1419 7.90721 27.6156 8.67447 29.3419L12.4919 37.9311C13.1539 39.4207 14.17 40.7258 15.4518 41.7329L27.5 51.1994C29 52.1994 32.8 53.5994 36 51.1994L52 41.6994M13 15.1994L4 20.1994C3 20.866 1 22.7994 1 25.1994V33.3085C1 36.3944 2.42473 39.3075 4.86059 41.202L27.3912 58.7259C27.7965 59.0411 28.2206 59.3357 28.6972 59.5266C30.5045 60.2507 33.8659 60.7887 37 58.6994L54.6558 48.4776C55.5466 47.9619 56.3863 47.332 56.9192 46.4514C58.2983 44.1723 59.2825 40.3166 56.0065 36.7065C56.0023 36.7019 55.9975 36.6975 55.9924 36.6937L40.0258 24.7187C40.009 24.7061 39.9966 24.6886 39.9904 24.6686L37.5 16.6994C37.167 15.7003 37.0003 14.2022 34.5071 11.7065C34.5025 11.7018 34.4972 11.6975 34.4918 11.6939L30 8.69936M16 16.6994V10.8819C16 10.1525 16.3971 9.48097 17.0362 9.12947L26 4.19936M13 18.1994V10.432C13 9.35991 13.5722 8.36926 14.5008 7.83349L25.6801 1.38392C25.8926 1.26134 26.1198 1.16086 26.3595 1.10875C28.903 0.555837 30 2.24325 30 3.19936V9.69936C30 11.6994 30 12.1994 28.5 13.1994L17 19.6994C15 20.6994 13 19.6994 13 18.1994ZM35.7841 17.9397L37.9433 24.1088C38.265 25.0278 37.878 26.0449 37.0269 26.5178L18.0749 37.0466C16.9908 37.6489 15.6256 37.1296 15.2159 35.959L13.0567 29.79C12.7351 28.8709 13.122 27.8538 13.9731 27.3809L32.9251 16.8521C34.0092 16.2498 35.3744 16.7692 35.7841 17.9397ZM50.5239 37.9802L47.1247 40.6996C46.7595 40.9918 46.2405 40.9918 45.8753 40.6996L42.4761 37.9802C41.9757 37.5799 41.9757 36.8188 42.4761 36.4185L45.8753 33.6991C46.2405 33.4069 46.7595 33.4069 47.1247 33.6991L50.5239 36.4185C51.0243 36.8188 51.0243 37.5799 50.5239 37.9802ZM43.0239 42.4802L39.6247 45.1996C39.2595 45.4918 38.7405 45.4918 38.3753 45.1996L34.9761 42.4802C34.4757 42.0799 34.4757 41.3188 34.9761 40.9185L38.3753 38.1991C38.7405 37.9069 39.2595 37.9069 39.6247 38.1991L43.0239 40.9185C43.5243 41.3188 43.5243 42.0799 43.0239 42.4802ZM30.8753 42.6991L27.4761 45.4185C26.9757 45.8188 26.9757 46.5799 27.4761 46.9802L30.8753 49.6996C31.2405 49.9918 31.7595 49.9918 32.1247 49.6996L35.5239 46.9802C36.0243 46.5799 36.0243 45.8188 35.5239 45.4185L32.1247 42.6991C31.7595 42.4069 31.2405 42.4069 30.8753 42.6991ZM44.0239 32.9802L40.6247 35.6996C40.2595 35.9918 39.7405 35.9918 39.3753 35.6996L35.9761 32.9802C35.4757 32.5799 35.4757 31.8188 35.9761 31.4185L39.3753 28.6991C39.7405 28.4069 40.2595 28.4069 40.6247 28.6991L44.0239 31.4185C44.5243 31.8188 44.5243 32.5799 44.0239 32.9802ZM37.0239 37.2809L33.6247 40.0002C33.2595 40.2924 32.7405 40.2924 32.3753 40.0002L28.9761 37.2809C28.4757 36.8805 28.4757 36.1195 28.9761 35.7191L32.3753 32.9998C32.7405 32.7076 33.2595 32.7076 33.6247 32.9998L37.0239 35.7191C37.5243 36.1195 37.5243 36.8805 37.0239 37.2809ZM29.5239 41.4802L26.1247 44.1996C25.7595 44.4918 25.2405 44.4918 24.8753 44.1996L21.4761 41.4802C20.9757 41.0799 20.9757 40.3188 21.4761 39.9185L24.8753 37.1991C25.2405 36.9069 25.7595 36.9069 26.1247 37.1991L29.5239 39.9185C30.0243 40.3188 30.0243 41.0799 29.5239 41.4802Z" stroke="#2C2C2C" stroke-linecap="round" stroke-linejoin="round"/>
</svg>
