<svg width="60" height="61" viewBox="0 0 60 61" fill="none" xmlns="http://www.w3.org/2000/svg">
<path d="M16 24.814L22.8881 25.7981C22.9625 25.8087 23.0378 25.8109 23.1126 25.8047L41 24.314M23 27.814V35.814M11.75 36.314L11.0661 36.1621C10.1511 35.9587 9.5 35.1471 9.5 34.2097V25.649C9.5 24.058 10.742 22.7437 12.3305 22.6538L24.8806 21.9434M11.75 36.314L8.01033 55.2617C8.00387 55.2944 8.01379 55.3281 8.03803 55.351C8.56098 55.8448 9.81762 56.4789 10.9838 55.3301C10.9943 55.3198 11.0026 55.3068 11.0076 55.293L17.375 37.564M11.75 36.314L17.375 37.564M17.375 37.564L20.1875 38.189M20.1875 38.189L22.6956 38.7464C22.8973 38.7912 23.1048 38.8045 23.3105 38.7858L28 38.3595M20.1875 38.189V59.2816C20.1875 59.3027 20.1938 59.3228 20.2064 59.3397C20.8242 60.1677 22.5072 61.2848 24.4767 59.3372C24.4916 59.3225 24.5018 59.303 24.5053 59.2825L28 38.3595M28 38.3595L32.5 37.9504M32.5 37.9504L34.9926 52.2718C34.9973 52.2988 35.0125 52.3225 35.0356 52.3372C35.5526 52.6637 36.7938 53.0843 37.953 52.3447C37.9822 52.3261 37.9993 52.293 37.9981 52.2584L37.5 37.4959M32.5 37.9504L37.5 37.4959M37.5 37.4959L42.5 37.0413M42.5 37.0413L48.4904 56.2832C48.4966 56.3032 48.5085 56.3205 48.5255 56.3329C49.2001 56.8259 50.7802 57.4845 51.9612 56.3521C51.9854 56.3289 51.996 56.2943 51.9894 56.2614L48 36.5413M42.5 37.0413L48 36.5413M48 36.5413L48.6811 36.4794C49.7112 36.3858 50.5 35.522 50.5 34.4876V25.4987C50.5 24.5253 49.7991 23.6932 48.8398 23.5278L36.2249 21.3528C36.0755 21.3271 35.9235 21.3184 35.7721 21.3269L34.4982 21.3991M34 2.31404L39.4552 11.2407C39.481 11.2829 39.472 11.3377 39.434 11.3693C37.8381 12.6993 36.1713 13.585 34.5 14.1297M34 2.31404C30.0403 -0.0617675 26.0345 1.31656 24.5 2.31404M34 2.31404C30 4.31404 25.9846 3.15749 24.5 2.31404M24.5 2.31404L19.0481 11.2353C19.0209 11.2798 19.0321 11.3375 19.0745 11.3678C20.3425 12.2763 22.2444 13.2988 24.5 13.999M24.5 13.999C27.4396 14.9116 30.9798 15.277 34.5 14.1297M24.5 13.999C23.7285 16.1626 23.1902 19.7568 24.8806 21.9434M34.5 14.1297C35.2069 16.0857 35.718 19.2271 34.4982 21.3991M24.8806 21.9434C25.7464 23.0634 27.1968 23.814 29.5 23.814C32 23.814 33.7049 22.8115 34.4982 21.3991M26.0848 36.7217L47.5848 34.8919C48.1023 34.8479 48.5 34.4149 48.5 33.8955V26.8879C48.5 26.3076 48.0077 25.8491 47.4289 25.8904L25.9289 27.4227C25.4055 27.46 25 27.8954 25 28.4201V35.7253C25 36.3111 25.5012 36.7714 26.0848 36.7217Z" stroke="#2C2C2C" stroke-linecap="round" stroke-linejoin="round"/>
</svg>
