<svg width="60" height="60" viewBox="0 0 60 60" fill="none" xmlns="http://www.w3.org/2000/svg">
<path d="M55.8296 42.002L29.3296 47.502C25.5 48.4378 25 47.9378 23.8296 45.502L21.3991 39.9929M55.8296 42.002C57.3296 41.6123 58.5 39.4378 57.3296 37.502L40.8296 8.002C40.5 7.4378 39.5 5.93779 37.3296 6.002L11.3296 7.502C10.1629 7.66866 8.02958 8.702 8.82958 11.502L10.9036 16.203M55.8296 42.002C55.8296 42.8804 55.4866 43.6445 55.0015 44.1939M9.05016 12.002C8.47126 12.4762 8.05445 12.838 7.82952 13.3007M12.3295 14.002L13.1374 15.8762M51.8295 40.002L29.3296 45.002C26 45.9378 25.5 44.4378 24.8295 43.002L23.4614 39.828M7.82952 13.3007C7.59305 13.7872 7.56867 14.3851 7.79101 15.3424C7.81568 15.4486 7.85129 15.5523 7.89461 15.6524L8.45067 16.937M7.82952 13.3007C6.99619 13.7011 5.52952 15.002 6.32952 17.002L6.68503 17.8315M55.0015 44.1939C54.6583 44.5826 54.2439 44.8639 53.8295 45.002L27.3295 51.002C23.5 51.9378 23 50.4378 22.3295 49.002L18.8668 41.002M55.0015 44.1939C55.1392 46.3474 53.6109 47.2966 52.8295 47.502L24.8295 53.502C22.3295 54.1743 22 53.4378 21.3295 52.002L17.2461 42.474M10.2575 26.1673L8.43394 21.9123M10.2575 26.1673C8.33861 25.9739 5.71001 24.8508 8.43394 21.9123M10.2575 26.1673L11.083 28.0935M9.9937 20.502C10.5549 20.1538 11.3964 19.7693 12.3731 19.5341M9.9937 20.502C9.34635 21.0129 8.83277 21.482 8.43394 21.9123M9.9937 20.502L12.9184 27.2591M18.8668 41.002C19.4622 40.6326 20.3611 40.2224 21.3991 39.9929M18.8668 41.002C18.1884 41.5374 17.6553 42.027 17.2461 42.474M6.68503 17.8315C5.78278 18.3999 4.97591 19.1132 4.32953 20.002C3.32953 21.502 2.18311 24.0324 3.82953 26.502C4.69593 27.8016 7.19231 29.2513 9.96221 28.8351M6.68503 17.8315C7.2423 17.4804 7.83596 17.1847 8.45067 16.937M8.45067 16.937C9.24423 16.6173 10.0729 16.3778 10.9036 16.203M10.9036 16.203C11.6546 16.045 12.4074 15.9399 13.1374 15.8762M13.1374 15.8762C14.9629 15.7171 16.6464 15.8174 17.8065 15.9984C17.8218 16.0008 17.8366 16.0071 17.8492 16.0161C20.56 17.9665 19.3843 20.072 18.3984 20.9429C18.3596 20.9771 18.3014 20.9738 18.2643 20.9377C17.1517 19.8568 15.8679 19.4102 14.6246 19.3266M14.6246 19.3266C13.8403 19.2739 13.0721 19.3658 12.3731 19.5341M14.6246 19.3266L17.6468 26.3382M12.3731 19.5341L15.4864 26.5908M9.96221 28.8351C9.35026 29.3064 8.79777 29.8581 8.32952 30.502C7.32952 32.002 6.1831 34.5324 7.82952 37.002C8.61857 38.1856 11.1574 39.6956 13.7936 39.6905M9.96221 28.8351C10.3174 28.5615 10.6926 28.3151 11.083 28.0935M11.083 28.0935C11.6663 27.7624 12.2835 27.4868 12.9184 27.2591M12.9184 27.2591C13.7559 26.9588 14.6242 26.7418 15.4864 26.5908M15.4864 26.5908C16.2185 26.4626 16.9462 26.3819 17.6468 26.3382M16.9533 29.9158C15.9712 30.0795 15.0878 30.4136 14.4313 30.7543M16.9533 29.9158C17.6594 29.7982 18.4165 29.7686 19.177 29.8882M16.9533 29.9158L19.9264 36.6549M14.4313 30.7543C15.5558 33.3524 17.3109 37.4073 17.3109 37.4073M14.4313 30.7543C13.7744 31.2334 13.4061 31.502 12.7492 31.9812M12.7492 31.9812C9.03549 35.2976 12.484 36.971 14.8357 37.0016C14.8757 37.0021 14.9112 37.0258 14.9269 37.0626L15.4707 38.3315M12.7492 31.9812C13.812 34.4611 15.4707 38.3315 15.4707 38.3315M17.6468 26.3382C19.274 26.2366 20.7551 26.3343 21.8064 26.4984C21.8218 26.5008 21.8366 26.5071 21.8492 26.5161C24.56 28.4665 23.3843 30.572 22.3984 31.4429C22.3596 31.4771 22.3015 31.4738 22.2644 31.4378C21.3159 30.5164 20.2431 30.0558 19.177 29.8882M19.177 29.8882L21.9718 36.3721M15.4707 38.3315C16.0505 37.9663 16.6697 37.6609 17.3109 37.4073M15.4707 38.3315C14.8615 38.7153 14.2958 39.1652 13.7936 39.6905M17.3109 37.4073C18.1575 37.0725 19.0426 36.8279 19.9264 36.6549M19.9264 36.6549C20.6152 36.5201 21.3033 36.4287 21.9718 36.3721M21.9718 36.3721C23.7785 36.2189 25.4424 36.319 26.5922 36.4984C26.6075 36.5008 26.6223 36.5071 26.635 36.5161C29.3457 38.4665 28.17 40.572 27.1841 41.4429C27.1453 41.4771 27.0871 41.4738 27.05 41.4377C25.944 40.3627 24.6819 39.915 23.4614 39.828M23.4614 39.828C22.7465 39.7771 22.0458 39.8499 21.3991 39.9929M17.2461 42.474C14.6251 45.3372 17.0868 46.4525 18.985 46.6612C19.0212 46.6652 19.0521 46.6881 19.0665 46.7215L20.0023 48.9052C20.0249 48.9578 19.998 49.0189 19.9439 49.0379C16.7264 50.1672 13.8193 48.4866 12.8295 47.002C11.1831 44.5324 12.1152 42.002 13.1152 40.502C13.3252 40.2133 13.552 39.9432 13.7936 39.6905M26.8295 21.502C25.2378 21.8999 24.5038 21.0112 24.3321 20.5098C24.3303 20.5045 24.3282 20.4995 24.3256 20.4945L20.3335 13.0094C20.3308 13.0045 20.3286 12.9991 20.3268 12.9938C19.9367 11.8085 20.8167 11.1782 21.3177 11.006C21.3257 11.0032 21.3338 11.0017 21.3422 11.0011L35.8295 10.002C36.6295 10.002 37.1629 10.6687 37.3295 11.002L41.3246 17.9934C41.3279 17.9991 41.3306 18.0053 41.3327 18.0116C41.7222 19.1976 40.8398 19.8275 40.3393 19.9987C40.3327 20.001 40.326 20.0024 40.319 20.0032L26.8295 21.502Z" stroke="#2C2C2C" stroke-linecap="round" stroke-linejoin="round"/>
</svg>
