<svg width="62" height="60" viewBox="0 0 62 60" fill="none" xmlns="http://www.w3.org/2000/svg">
<path d="M16.9585 15.9983C17.2337 16.0212 17.4753 15.8167 17.4983 15.5415C17.5212 15.2663 17.3167 15.0246 17.0415 15.0017L16.9585 15.9983ZM12 47L11.5101 47.0998C11.5575 47.3327 11.7623 47.5 12 47.5V47ZM34.5 46L34.1975 46.3981C34.3813 46.5378 34.6368 46.5334 34.8158 46.3876L34.5 46ZM57.5 47V47.5C57.6578 47.5 57.8063 47.4255 57.9006 47.2991C57.995 47.1727 58.0242 47.0092 57.9794 46.8579L57.5 47ZM39.9617 15.5015C39.6863 15.5226 39.4803 15.763 39.5015 16.0383C39.5227 16.3137 39.763 16.5197 40.0383 16.4985L39.9617 15.5015ZM4.49291 24.4161C4.44657 24.1439 4.18833 23.9607 3.9161 24.0071C3.64387 24.0534 3.46075 24.3117 3.50709 24.5839L4.49291 24.4161ZM54 50C54.2761 50 54.5 49.7761 54.5 49.5C54.5 49.2238 54.2761 49 54 49V50ZM8.5 18.3119L8.78901 18.7199L8.5 18.3119ZM49.7963 21L49.3169 21.142V21.142L49.7963 21ZM52.1323 21.9117L51.6563 22.0647L52.1323 21.9117ZM51.6699 21.2223L51.9475 20.8065L51.6699 21.2223ZM60.0826 51.029L60.5114 51.2862L60.0826 51.029ZM38.3515 52.7863L37.9877 52.4432L38.3515 52.7863ZM30.6311 52.6179L30.3012 52.9936L30.6311 52.6179ZM1.57002 19.7875L1.17959 19.4751L1.57002 19.7875ZM4.0303 18.0584L4.002 18.5576L4.0303 18.0584ZM38.8611 50.2709L38.4935 49.9321L38.8611 50.2709ZM31.154 50.2552L31.5095 49.9036L31.154 50.2552ZM38.3701 47.6743L38.0215 47.3158L38.3701 47.6743ZM6.49836 50.491L6.00656 50.5812L6.49836 50.491ZM6.50003 50.5089L7.00002 50.5053L6.50003 50.5089ZM31.6759 47.8297L32.0331 47.4798L31.6759 47.8297ZM49.4888 19.9856L49.8827 19.6777L49.4888 19.9856ZM49.5054 20.0181L49.026 20.1601L49.5054 20.0181ZM7.99871 47.9924L7.5058 48.0763L7.99871 47.9924ZM8.00237 48.0071L8.47618 47.8474L8.00237 48.0071ZM60.5334 50.2776L60.1047 50.0204L60.5334 50.2776ZM60.7225 48.6366L60.2465 48.7896L60.7225 48.6366ZM6.51073 20.0527L7.00067 19.9529L6.51073 20.0527ZM6.53809 19.962L6.89043 20.3168L6.53809 19.962ZM6.02079 20.1525L11.5101 47.0998L12.4899 46.9002L7.00067 19.9529L6.02079 20.1525ZM12.3621 47.3448C13.9673 45.6593 17.0023 43.5686 20.8446 42.8285C24.6652 42.0925 29.3121 42.6852 34.1975 46.3981L34.8025 45.6019C29.6879 41.7148 24.7515 41.0575 20.6554 41.8465C16.5811 42.6314 13.366 44.8407 11.6379 46.6552L12.3621 47.3448ZM34.8158 46.3876C37.0133 44.5971 40.7764 42.4995 44.8951 42.0217C48.9808 41.5476 53.4275 42.6613 57.108 47.3103L57.892 46.6896C53.9725 41.7386 49.1692 40.519 44.7799 41.0283C40.4236 41.5338 36.4867 43.7362 34.1842 45.6124L34.8158 46.3876ZM49.8827 19.6777C48.6458 18.0949 45.3697 15.0855 39.9617 15.5015L40.0383 16.4985C44.9972 16.1171 47.9809 18.8681 49.0948 20.2935L49.8827 19.6777ZM34.9858 45.8818L30.4858 27.3818L29.5142 27.6182L34.0142 46.1182L34.9858 45.8818ZM12 47.5H29.928V46.5H12V47.5ZM31.3188 48.1796C32.0628 48.9391 33.1375 49.6599 34.4401 49.8007C35.7657 49.944 37.2341 49.4767 38.7187 48.0327L38.0215 47.3158C36.7077 48.5936 35.5226 48.9119 34.5475 48.8065C33.5494 48.6986 32.6762 48.1363 32.0331 47.4798L31.3188 48.1796ZM39.9215 47.5H57.5V46.5H39.9215V47.5ZM3.50709 24.5839L7.5058 48.0763L8.49162 47.9085L4.49291 24.4161L3.50709 24.5839ZM7.52856 48.1668C7.6278 48.4612 7.82892 48.8912 8.12893 49.2583C8.42234 49.6173 8.88215 50 9.5 50V49C9.32161 49 9.11725 48.8873 8.90324 48.6255C8.69582 48.3717 8.54625 48.0552 8.47618 47.8474L7.52856 48.1668ZM9.5 50H29.5V49H9.5V50ZM30.7985 50.6068C31.6798 51.498 32.9586 52.3851 34.4513 52.601C35.9803 52.822 37.6469 52.3259 39.2288 50.6098L38.4935 49.9321C37.107 51.4363 35.758 51.7795 34.5944 51.6113C33.3947 51.4378 32.304 50.707 31.5095 49.9036L30.7985 50.6068ZM40.5 50H54V49H40.5V50ZM17.0415 15.0017C15.2451 14.852 11.8425 15.3315 8.21099 17.9038L8.78901 18.7199C12.2319 16.2811 15.4011 15.8685 16.9585 15.9983L17.0415 15.0017ZM8.21099 17.9038C7.52117 18.3925 6.84059 18.9569 6.18575 19.6073L6.89043 20.3168C7.50459 19.7068 8.14255 19.1778 8.78901 18.7199L8.21099 17.9038ZM8.52831 17.8127L4.05861 17.5592L4.002 18.5576L8.47169 18.8111L8.52831 17.8127ZM1.96491 18.4935L1.17959 19.4751L1.96046 20.0998L2.74578 19.1182L1.96491 18.4935ZM0.672742 21.4877L6.00656 50.5812L6.99016 50.4009L1.65635 21.3073L0.672742 21.4877ZM6.00004 50.5124C6.00236 50.8428 6.09931 51.3242 6.39964 51.7371C6.71814 52.175 7.24184 52.5 8 52.5V51.5C7.56521 51.5 7.3407 51.3309 7.20833 51.1489C7.0578 50.9419 7.00123 50.6777 7.00002 50.5053L6.00004 50.5124ZM8 52.5H29.1153V51.5H8V52.5ZM30.3012 52.9936C31.236 53.8145 32.5697 54.6418 34.0628 54.8688C35.5881 55.1007 37.2369 54.6971 38.7153 53.1293L37.9877 52.4432C36.7388 53.7678 35.4199 54.0637 34.2131 53.8802C32.974 53.6918 31.8111 52.9887 30.961 52.2422L30.3012 52.9936ZM40.0184 52.5H58.3676V51.5H40.0184V52.5ZM60.5114 51.2862L60.9622 50.5349L60.1047 50.0204L59.6539 50.7717L60.5114 51.2862ZM61.1985 48.4836L52.6083 21.7587L51.6563 22.0647L60.2465 48.7896L61.1985 48.4836ZM57.9794 46.8579L50.2757 20.8579L49.3169 21.142L57.0206 47.142L57.9794 46.8579ZM50.2757 20.8579L49.9848 19.876L49.026 20.1601L49.3169 21.142L50.2757 20.8579ZM51.9475 20.8065C51.4389 20.4669 50.5887 20.1584 49.6164 20.5335L49.9762 21.4665C50.5545 21.2434 51.0617 21.4174 51.3923 21.6382L51.9475 20.8065ZM52.6083 21.7587C52.5065 21.4417 52.3211 21.0558 51.9475 20.8065L51.3923 21.6382C51.4928 21.7052 51.5838 21.839 51.6563 22.0647L52.6083 21.7587ZM58.3676 52.5C59.2458 52.5 60.0595 52.0392 60.5114 51.2862L59.6539 50.7717C59.3828 51.2235 58.8945 51.5 58.3676 51.5V52.5ZM38.7153 53.1293C39.0856 52.7366 39.5498 52.5 40.0184 52.5V51.5C39.2073 51.5 38.4954 51.9048 37.9877 52.4432L38.7153 53.1293ZM29.1153 52.5C29.5307 52.5 29.9467 52.6824 30.3012 52.9936L30.961 52.2422C30.4686 51.8098 29.8268 51.5 29.1153 51.5V52.5ZM1.17959 19.4751C0.727008 20.0408 0.542098 20.7751 0.672742 21.4877L1.65635 21.3073C1.57796 20.8798 1.68891 20.4392 1.96046 20.0998L1.17959 19.4751ZM4.05861 17.5592C3.25063 17.5134 2.47046 17.8615 1.96491 18.4935L2.74578 19.1182C3.04911 18.739 3.51721 18.5301 4.002 18.5576L4.05861 17.5592ZM39.2288 50.6098C39.5809 50.2278 40.0374 50 40.5 50V49C39.7036 49 38.9947 49.3884 38.4935 49.9321L39.2288 50.6098ZM29.5 50C29.9631 50 30.4238 50.2279 30.7985 50.6068L31.5095 49.9036C30.9988 49.3873 30.2959 49 29.5 49V50ZM38.7187 48.0327C39.0637 47.6971 39.4914 47.5 39.9215 47.5V46.5C39.182 46.5 38.5148 46.836 38.0215 47.3158L38.7187 48.0327ZM6.00656 50.5812C6.00228 50.5579 6.0002 50.5347 6.00004 50.5124L7.00002 50.5053C6.99978 50.4709 6.99662 50.4361 6.99016 50.4009L6.00656 50.5812ZM29.928 47.5C30.4189 47.5 30.9079 47.7602 31.3188 48.1796L32.0331 47.4798C31.5068 46.9426 30.7763 46.5 29.928 46.5V47.5ZM49.0948 20.2935C49.0616 20.2509 49.0392 20.2046 49.026 20.1601L49.9848 19.876C49.9645 19.8076 49.9313 19.7399 49.8827 19.6777L49.0948 20.2935ZM7.5058 48.0763C7.5107 48.1051 7.51798 48.1354 7.52856 48.1668L8.47618 47.8474C8.4835 47.8691 8.48843 47.8898 8.49162 47.9085L7.5058 48.0763ZM60.9622 50.5349C61.3328 49.9171 61.419 49.1695 61.1985 48.4836L60.2465 48.7896C60.3787 49.2011 60.3271 49.6497 60.1047 50.0204L60.9622 50.5349ZM7.00067 19.9529C7.02743 20.0842 6.98667 20.2212 6.89043 20.3168L6.18575 19.6073C6.04189 19.7501 5.98063 19.9553 6.02079 20.1525L7.00067 19.9529Z" fill="#2C2C2C"/>
<circle cx="28.5" cy="16.5" r="11" stroke="#2C2C2C"/>
<path d="M28.0489 9.54509C28.3483 8.62377 29.6517 8.62378 29.9511 9.54508L30.8819 12.4098C31.1496 13.2339 31.9175 13.7918 32.784 13.7918H35.7962C36.7649 13.7918 37.1677 15.0314 36.3839 15.6008L33.947 17.3713C33.2461 17.8806 32.9527 18.7833 33.2205 19.6074L34.1513 22.4721C34.4507 23.3934 33.3962 24.1596 32.6125 23.5902L30.1756 21.8197C29.4746 21.3104 28.5254 21.3104 27.8244 21.8197L25.3875 23.5902C24.6038 24.1596 23.5493 23.3934 23.8487 22.4721L24.7795 19.6074C25.0473 18.7833 24.7539 17.8806 24.053 17.3713L21.6161 15.6008C20.8323 15.0314 21.2351 13.7918 22.2038 13.7918H25.216C26.0825 13.7918 26.8504 13.2339 27.1181 12.4098L28.0489 9.54509Z" stroke="#2C2C2C"/>
</svg>
