<svg width="60" height="60" viewBox="0 0 60 60" fill="none" xmlns="http://www.w3.org/2000/svg">
<path d="M26.5 8V22.7459C26.5 23.5128 26.0615 24.2122 25.3711 24.5462L11 31.5M26.5 8L41.8276 14.9671C42.5416 15.2916 43 16.0035 43 16.7878V30.2459C43 31.0128 42.5615 31.7122 41.8711 32.0462L28.3446 38.5913C27.8095 38.8502 27.187 38.8577 26.6458 38.6117L11 31.5M26.5 8L32.1682 5.38389C32.6964 5.14014 33.3044 5.13838 33.834 5.37907L48.3276 11.9671C49.0416 12.2916 49.5 13.0035 49.5 13.7878V31.9842C49.5 32.7478 49.0651 33.4448 48.3792 33.7806L35 40.3291M11 31.5V35.2122C11 35.9965 11.4584 36.7084 12.1724 37.0329L22.5 41.7273M29.5431 43L28.3477 43.5851C27.8109 43.8478 27.1848 43.8567 26.6408 43.6095L22.5 41.7273M29.5431 43L29.704 46.252M29.5431 43L35 40.3291M29.704 46.252C31.1609 48.252 35 47.5 35 43.8077M29.704 46.252L27.5 47.2692M35 43.8077L38.5157 42.185C39.4987 41.7314 40.5527 41.3782 41.6325 41.4568C41.7614 41.4662 41.8858 41.4801 42 41.5C43.2743 41.7216 44.9573 42.9683 44.9992 42.9994C45.0005 43.0004 45.0007 43.0005 45.002 43.0015C46.0477 43.7869 46.0089 44.6149 45.6705 45.2334C45.343 45.8317 44.6889 46.1461 44.0715 46.436L40.3822 48.1687M35 43.8077V40.3291M22.5 41.7273L20 43.5M20 43.5L27.5 47.2692M20 43.5C18.7472 44.7528 19.2383 45.6568 19.7254 46.212C19.8988 46.4096 20.125 46.5517 20.3679 46.6523L24.8333 48.5M20 51L24.0522 52.5296C24.5521 52.7182 25.1066 52.6991 25.5922 52.4764L32.2689 49.4143M20 51L24.8333 48.5M20 51V51C19.0879 51.3648 19.0806 52.6533 19.9884 53.0285L23.5642 54.5065C24.0565 54.71 24.6096 54.7087 25.1009 54.5028L32.2689 51.5M44 44L37.6433 46.9339M27.5 47.2692L24.8333 48.5M32.2689 49.4143V51.5M32.2689 49.4143L37.6433 46.9339M32.2689 51.5L39.6132 55.0691C40.1723 55.3407 40.8259 55.3371 41.3818 55.0591L45.759 52.8705C46.2335 52.6333 46.6691 52.2064 46.5794 51.6836C46.5088 51.2728 46.2643 50.971 46 50.7694M37.6433 46.9339C37.6992 46.9525 38.9039 47.4961 40.3822 48.1687M34.5 50.5L39.6087 53.0544C40.17 53.335 40.8305 53.3359 41.3925 53.0569L46 50.7694M46 50.7694C45.8933 50.688 42.7783 49.2589 40.3822 48.1687" stroke="#2C2C2C" stroke-linecap="round" stroke-linejoin="round"/>
</svg>
