<svg width="60" height="60" viewBox="0 0 60 60" fill="none" xmlns="http://www.w3.org/2000/svg">
<path d="M22.5 35.0114L24.3134 37.1792C24.5857 37.5047 24.3542 38 23.9299 38H17.5M20.4084 17.7184L14.8969 10.9849C14.6936 10.7365 14.3123 10.7413 14.1153 10.9946L4.62764 23.193C4.3722 23.5215 4.60625 24 5.02232 24H8.91289C9.34007 24 9.57052 24.5011 9.29252 24.8254L4.70748 30.1746C4.42948 30.4989 4.65993 31 5.08711 31H8.91289C9.34007 31 9.57052 31.5011 9.29252 31.8254L4.70748 37.1746C4.42948 37.4989 4.65993 38 5.08711 38H12H17.5M17.5 38V54C17.5 54.2761 17.2761 54.5 17 54.5H12.5C12.2239 54.5 12 54.2761 12 54V46.25M44 38H37.0717C36.6471 38 36.4157 37.5041 36.6885 37.1788L38.5 35.0182M44 38V54C44 54.2761 44.2239 54.5 44.5 54.5H49C49.2761 54.5 49.5 54.2761 49.5 54V38M44 38H49.5M49.5 38H55.9129C56.3401 38 56.5705 37.4989 56.2925 37.1746L51.7075 31.8254C51.4295 31.5011 51.6599 31 52.0871 31H55.9129C56.3401 31 56.5705 30.4989 56.2925 30.1746L51.7075 24.8254C51.4295 24.5011 51.6599 24 52.0871 24H55.9777C56.3938 24 56.6278 23.5215 56.3724 23.193L46.8822 10.9914C46.686 10.7391 46.3067 10.7332 46.1026 10.9792L40.5145 17.7184M27.5 34.6738C27.2555 34.5339 27.0085 34.3747 26.7595 34.1947C26.5996 34.0791 26.3893 34.0606 26.2114 34.1459C23.5918 35.4018 18.3116 36.1642 16 30C15.6756 28.5404 15.9825 25.0923 19.6849 22.6964C19.8696 22.5768 19.962 22.3552 19.9216 22.1389C19.5372 20.0769 19.8295 16.2536 23.6283 14.646C23.8432 14.5551 23.9782 14.3375 23.961 14.1049C23.7568 11.3318 24.7831 6.38113 30.5 6C33.25 6.16177 38.1982 7.98785 36.6581 13.9471C36.5821 14.2408 36.7672 14.5438 37.0584 14.6289C39.03 15.205 41.7874 17.2616 40.6204 22.0456C40.558 22.3017 40.6936 22.5673 40.9343 22.6746C43.2762 23.7189 46.6119 26.8394 44.0243 32.4477C44.0086 32.4817 43.9893 32.514 43.9659 32.5432C42.7934 34.0108 39.4147 36.2701 34.8265 34.1568C34.631 34.0668 34.3989 34.1046 34.234 34.2429C34.0277 34.4158 33.7814 34.5916 33.5 34.7556M27.5 34.6738L26.5265 53.9748C26.5121 54.2605 26.7398 54.5 27.0259 54.5H33.974C34.2601 54.5 34.4879 54.2604 34.4734 53.9747L33.5 34.7556M27.5 34.6738C29.9444 36.0731 32.1348 35.5517 33.5 34.7556M29.5 14.5C32.5 15 37.8 17.8 35 25" stroke="#F5F5F5" stroke-linecap="round" stroke-linejoin="round"/>
</svg>
