<svg width="60" height="60" viewBox="0 0 60 60" fill="none" xmlns="http://www.w3.org/2000/svg">
<path d="M8.64807 13.0583C8.98141 12.2249 10.5481 10.4583 14.1481 10.0583C17.7481 9.65827 18.9814 6.8916 19.1481 5.55827C22.8823 9.13694 27.9239 17.451 20.4408 23.7472C19.3224 24.6883 17.8931 25.2137 16.4337 25.1323C13.8681 24.9893 10.7525 24.0335 10.1481 21.0116M11.1481 15.0583C10.6481 13.0583 6.64807 11.5583 5.14807 15.5583C3.20398 20.7425 10.1481 25.0583 11.6481 18.0583M7.14807 15.0583C8.39684 15.1536 10.4697 16.3156 8.77123 20.2012M15.1481 19.0583C16.4814 20.2249 19.6481 21.8583 21.6481 19.0583M32.1481 15.6822C30.453 20.2025 34.9569 23.7297 37.4281 20.8968M32.1481 15.6822C32.7715 13.9678 34.7648 11.5247 37.9646 14.4857M32.1481 15.6822C30.6481 12.3488 28.6481 5.79023 34.6481 4.19023C35.9814 2.02357 40.3481 -1.20977 47.1481 3.19023C49.3147 2.52357 54.3481 2.09023 55.1481 5.69023C55.9481 9.29023 53.4471 11.8569 52.1481 13.1902M38.6481 18.1822C38.3854 19.4077 37.9525 20.2955 37.4281 20.8968M38.6481 15.1822C38.4145 14.9226 38.1866 14.6911 37.9646 14.4857M34.6481 15.1822C35.8147 15.5155 37.7481 17.0822 36.1481 20.6822M37.4281 20.8968C37.9944 22.3728 40.3144 23.9819 43.6481 24.2961C44.67 24.3924 47.5559 24.0115 48.6481 23.1902C52.6481 20.1822 52.6545 17.1058 52.1481 13.1902M50.1481 9.21117C50.8887 9.76666 51.824 10.6844 52.1481 13.1902M37.9646 14.4857C38.2368 13.3845 38.8013 11.0902 38.1481 8.69023C40.8759 10.5236 48.1481 12.7902 52.1481 7.19023M42.6481 19.1822C43.8147 20.1822 46.6481 21.5822 48.6481 19.1822M35.0214 32.5019C36.6214 27.3019 34.1481 24.6902 32.6481 23.6902C29.6481 21.1902 27.3147 24.8569 26.1481 27.1902C24.6481 30.1902 21.6481 30.1902 18.6481 30.6902C14.6481 31.6902 12.4814 34.3569 11.6481 35.6902C6.49854 35.0036 4.17265 37.4599 3.40602 39.329C3.17836 39.884 3.14807 40.492 3.14807 41.0919V49.6902C3.25285 51.8569 5.43099 55.5902 13.3052 53.1902M27.1481 33.6902C30.4814 33.6902 36.6481 32.6902 45.6481 28.6902C47.6481 27.6902 52.3481 27.6902 53.1481 31.6902M53.1481 31.6902C48.7481 33.6902 39.3147 36.5236 35.1481 37.6902M53.1481 31.6902C55.4814 31.1902 59.834 32.6874 57 39.1379M36.1481 44C40.3575 42.647 44.9888 41.9528 49.8924 39.4007C50.973 38.8384 52.1142 38.3436 53.3322 38.3244C56.9179 38.2682 60.6035 39.9183 55.5 45.5M37.1481 49.1902C39.1682 49.1902 43.9865 48.5157 48.8777 45.9985C50.4053 45.2123 52.0797 44.4782 53.7548 44.8594C55.6247 45.2849 57.1305 46.5405 56.0192 49.7525C55.5619 51.0742 54.5882 52.1548 53.4224 52.9275C41.662 60.7224 26.5032 58.4273 19.4299 55.9743C18.905 55.7922 18.3718 55.6443 17.8353 55.5001C16.0207 55.0122 14.5214 54.1738 13.3052 53.1902M9.14807 47.1902C9.572 48.674 10.872 51.2225 13.3052 53.1902M14.6481 46.1902C16.9814 44.8569 22.8481 43.5902 27.6481 49.1902M1.14808 21.6902C0.481413 15.8569 1.84352 5.53713 9.84352 1.93713C12.9087 0.93609 19.9999 0.359636 23.8435 6.06212C23.8435 6.06212 30.2878 18.6471 23.6127 25.1862C22.7221 26.0586 21.5268 26.5526 20.2841 26.6516C18.7902 26.7707 17.0993 26.6902 14.1481 26.6902C12.5136 26.732 9.97101 26.6096 8.46667 26.3737C5.08829 25.8438 1.68 24.5271 1.14808 21.6902Z" stroke="#2C2C2C" stroke-linecap="round" stroke-linejoin="round"/>
</svg>
