<svg width="61" height="61" viewBox="0 0 61 61" fill="none" xmlns="http://www.w3.org/2000/svg">
<path d="M53.0991 42H49.6664C48.4141 42 47.2374 42.7554 47.0991 44V44V44C46.9243 45.573 48.5963 46.5 50.179 46.5H50.7202C51.6226 46.5 52.5679 46.6984 53.1378 47.398C53.3953 47.714 53.5991 48.0928 53.5991 48.5C53.5991 48.9072 53.3953 49.286 53.1378 49.602C52.5679 50.3016 51.6226 50.5 50.7202 50.5H46.5991M50.5991 39.5V52.5" stroke="#2C2C2C" stroke-linecap="round" stroke-linejoin="round"/>
<path d="M36.0991 50.4034C34.4928 50.7937 32.819 51 31.0991 51C18.9489 51 9.09912 40.7025 9.09912 28C9.09912 15.2975 18.9489 5 31.0991 5C43.2494 5 53.0991 15.2975 53.0991 28C53.0991 29.8956 52.8798 31.7377 52.4661 33.5" stroke="#2C2C2C"/>
<path d="M59.5991 46C59.5991 53.5106 54.1748 59.5 47.5991 59.5C41.0235 59.5 35.5991 53.5106 35.5991 46C35.5991 38.4894 41.0235 32.5 47.5991 32.5C54.1748 32.5 59.5991 38.4894 59.5991 46Z" stroke="#2C2C2C"/>
<path d="M57.5991 46.5C57.5991 51.5243 53.9666 55.5 49.5991 55.5C45.2317 55.5 41.5991 51.5243 41.5991 46.5C41.5991 41.4757 45.2317 37.5 49.5991 37.5C53.9666 37.5 57.5991 41.4757 57.5991 46.5Z" stroke="#2C2C2C"/>
<mask id="path-5-outside-1_550_4795" maskUnits="userSpaceOnUse" x="21.0991" y="12" width="14" height="20" fill="black">
<rect fill="white" x="21.0991" y="12" width="14" height="20"/>
<path fill-rule="evenodd" clip-rule="evenodd" d="M32.0991 13C30.9946 13 30.0991 13.8954 30.0991 15V27H24.0991C22.9946 27 22.0991 27.8954 22.0991 29C22.0991 30.1046 22.9946 31 24.0991 31H32.0991C33.2037 31 34.0991 30.1046 34.0991 29V15C34.0991 13.8954 33.2037 13 32.0991 13Z"/>
</mask>
<path d="M30.0991 27V28H31.0991V27H30.0991ZM24.0991 27L24.0991 28H24.0991V27ZM31.0991 15C31.0991 14.4477 31.5468 14 32.0991 14V12C30.4423 12 29.0991 13.3431 29.0991 15H31.0991ZM31.0991 27V15H29.0991V27H31.0991ZM24.0991 28H30.0991V26H24.0991V28ZM23.0991 29C23.0991 28.4477 23.5468 28 24.0991 28L24.0991 26C22.4423 26 21.0991 27.3431 21.0991 29H23.0991ZM24.0991 30C23.5468 30 23.0991 29.5523 23.0991 29H21.0991C21.0991 30.6569 22.4423 32 24.0991 32V30ZM32.0991 30H24.0991V32H32.0991V30ZM33.0991 29C33.0991 29.5523 32.6514 30 32.0991 30V32C33.756 32 35.0991 30.6569 35.0991 29H33.0991ZM33.0991 15V29H35.0991V15H33.0991ZM32.0991 14C32.6514 14 33.0991 14.4477 33.0991 15H35.0991C35.0991 13.3431 33.756 12 32.0991 12V14Z" fill="#2C2C2C" mask="url(#path-5-outside-1_550_4795)"/>
<path d="M20.0991 3.5C8.09913 10.5 -4.90088 36 20.0991 52.5M55.5991 35.5C61.0991 10.5 42.0991 2 33.0991 1H24.0991C17.0991 1.5 5.69913 6.3 2.09913 19.5C-0.067531 27.3333 -0.50086 44.9 15.0991 52.5C18.2658 54.1667 26.7991 56.9 37.5991 54.5" stroke="#2C2C2C" stroke-linecap="round" stroke-linejoin="round"/>
</svg>
