<svg width="60" height="60" viewBox="0 0 60 60" fill="none" xmlns="http://www.w3.org/2000/svg">
<path d="M26.1954 10.3719C26.1954 10.3719 31.9305 22.3083 25.1675 28.7683C24.266 29.6293 23.0733 30.098 21.845 30.3109C19.9806 30.6341 17.7888 30.8908 15.5937 30.9469M26.1954 10.3719C25.5288 9.16356 24.5288 7.61356 23.1954 6.24691M26.1954 10.3719C27.5288 9.56199 30.7937 8.21415 34.3937 10.1579M10.6954 15.9469C11.0288 15.1136 12.5954 13.3469 16.1954 12.9469C19.7954 12.5469 21.0288 9.78026 21.1954 8.44693C24.9297 12.0256 29.9713 20.3397 22.4882 26.6359C21.3697 27.577 19.9404 28.1024 18.481 28.021C15.9155 27.878 12.7998 26.9222 12.1954 23.9003M13.1954 17.9469C12.6954 15.9469 8.69542 14.4469 7.19542 18.4469C5.25133 23.6312 12.1954 27.9469 13.6954 20.9469M9.19542 17.9469C10.4442 18.0422 12.5171 19.2043 10.8186 23.0899M17.1954 21.9469C18.5288 23.1136 21.6954 24.7469 23.6954 21.9469M34.6954 19.9469C33.0003 24.4672 37.5043 27.9944 39.9754 25.1615M34.6954 19.9469C35.3188 18.2326 37.3122 15.7895 40.5119 18.7504M34.6954 19.9469C33.1954 16.6136 31.6954 9.54693 37.6954 7.94693C37.8591 7.4982 38.1243 7.00651 38.4994 6.54151M41.1954 22.4469C40.9328 23.6725 40.4999 24.5603 39.9754 25.1615M41.1954 19.4469C40.9618 19.1874 40.734 18.9559 40.5119 18.7504M37.1954 19.4469C38.3621 19.7803 40.2954 21.3469 38.6954 24.9469M39.9754 25.1615C40.5418 26.6375 42.3618 29.0089 45.6954 29.3231M50.1954 28.5609C48.8815 28.9363 46.7173 29.4194 45.6954 29.3231M50.1954 28.5609C50.5523 28.4589 49.8853 28.7153 50.1954 28.5609ZM50.1954 28.5609C53.7155 26.8081 54.3048 21.8625 53.7985 17.9469M50.1954 28.5609C50.0353 33.0229 47.4631 43.0469 38.4552 47.4469M51.9609 12.8016C52.7016 13.3571 53.4744 15.4411 53.7985 17.9469M40.5119 18.7504C40.7841 17.6493 41.1652 14.8469 40.5119 12.4469C43.2398 14.2803 49.6954 16.5469 53.6954 10.9469M45.1954 23.4469C46.3621 24.4469 49.1954 25.8469 51.1954 23.4469M53.7985 17.9469C55.0974 16.6136 57.4954 13.0469 56.6954 9.44693C55.8954 5.84693 51.3621 6.28026 49.1954 6.94693C43.4094 3.18301 40.0344 4.63877 38.4994 6.54151M23.1954 6.24691C20.6981 3.68721 17.0314 1.77073 12.1954 3.94693C4.19543 7.54693 3.52876 20.1136 4.19543 25.9469C4.72734 28.7838 7.44019 30.1536 10.8186 30.6834M23.1954 6.24691C25.7314 4.87663 32.3426 3.01717 38.4994 6.54151M19.1954 46.8523C17.5003 51.3727 22.0043 54.8998 24.4754 52.067M19.1954 46.8523C19.8188 45.138 21.8122 42.6949 25.0119 45.6558M19.1954 46.8523C18.9072 46.1577 18.6311 45.3353 18.4156 44.4469M25.6954 49.3523C25.4328 50.5779 24.9999 51.4657 24.4754 52.067M25.6954 46.3523C25.4618 46.0928 25.234 45.8613 25.0119 45.6558M21.6954 46.3523C22.8621 46.6857 24.7954 48.2523 23.1954 51.8523M24.4754 52.067C25.2154 53.9954 28.0954 57.4523 33.6954 55.8523C37.9624 54.6332 38.4184 51.092 38.4552 47.4469M36.4609 39.707C37.2016 40.2625 37.9744 42.3465 38.2985 44.8523M25.0119 45.6558C25.2841 44.5547 25.6652 41.7523 25.0119 39.3523C27.7398 41.1857 34.6954 43.0469 38.6954 37.4469M29.6954 50.3523C30.8621 51.3523 33.6954 52.7523 35.6954 50.3523M38.2985 44.8523C40.8475 42.3257 42.0594 39.8945 42.5295 37.8523M38.2985 44.8523C38.406 45.6842 38.4642 46.5626 38.4552 47.4469M10.8186 30.6834C11.4243 34.2713 13.7918 42.0469 18.4156 44.4469M10.8186 30.6834C12.3229 30.9194 13.9592 30.9887 15.5937 30.9469M18.4156 44.4469C17.935 42.4653 17.7559 40.1551 18.4156 38.2014M15.5937 30.9469C15.6077 32.2833 16.1918 35.605 18.4156 38.2014M18.4156 38.2014C19.1498 36.0273 20.9229 34.2945 24.4754 33.9469C25.8821 32.7803 29.4954 30.9469 32.6954 32.9469C34.5288 30.9469 38.9954 28.1469 42.1954 32.9469C42.6741 33.8694 43.0409 35.6306 42.5295 37.8523M45.6954 29.3231C45.5848 30.968 44.7968 34.9767 42.5295 37.8523" stroke="#F5F5F5" stroke-linecap="round" stroke-linejoin="round"/>
</svg>
